<svg xmlns="http://www.w3.org/2000/svg" viewBox="0 0 43.02 44.08"><defs><style>.cls-1{fill:#fff;}.cls-2{fill:#d7d9e0;}.cls-3{opacity:0.3;}.cls-4{fill:#76c613;}</style></defs><title>Ativo 7</title><g id="Camada_2" data-name="Camada 2"><g id="sol"><circle class="cls-1" cx="25.13" cy="24.36" r="12.49"/><path class="cls-2" d="M33.12,22.07A11.76,11.76,0,0,1,21.51,33.69,11.73,11.73,0,0,1,9.89,22.07a11.62,11.62,0,0,1,23.23,0,.69.69,0,0,0,1.38,0,13.18,13.18,0,0,0-9.84-12.6A13,13,0,0,0,13,31.86,13,13,0,0,0,34.5,22.07.69.69,0,0,0,33.12,22.07Z"/><path class="cls-2" d="M4.32,9.2,9.9,13.68c.68.55,1.66-.42,1-1L5.29,8.23c-.68-.55-1.66.42-1,1Z"/><path class="cls-2" d="M16,8.76,12.83,2.43c-.4-.79-1.59-.09-1.19.69l3.22,6.33c.4.79,1.58.1,1.18-.69Z"/><path class="cls-2" d="M.86,27.46l7.07-1.62c.86-.19.49-1.52-.37-1.32L.49,26.13c-.86.2-.49,1.52.37,1.33Z"/><path class="cls-2" d="M7.9,18.23l-7-1.61C0,16.42-.37,17.75.49,17.94l7,1.61c.87.2,1.23-1.13.37-1.32Z"/><path class="cls-2" d="M20.82.66V8.11a.69.69,0,0,0,1.38,0V.66a.69.69,0,0,0-1.38,0Z"/><path class="cls-2" d="M28.33,9.45q1.53-3.16,3.05-6.33c.38-.79-.8-1.49-1.19-.69l-3,6.33c-.38.79.8,1.49,1.18.69Z"/><path class="cls-2" d="M5.29,35.85l5.58-4.45c.69-.55-.29-1.52-1-1L4.32,34.88c-.69.55.29,1.51,1,1Z"/><path class="cls-2" d="M42.53,26.13l-7.07-1.61c-.86-.2-1.23,1.13-.36,1.32l7.07,1.62c.86.19,1.22-1.13.36-1.33Z"/><path class="cls-2" d="M31.85,31.16l5.88,4.69c.69.54,1.67-.42,1-1l-5.88-4.69c-.68-.55-1.66.42-1,1Z"/><path class="cls-2" d="M35.46,19.56l7.07-1.62c.86-.19.5-1.52-.36-1.32L35.1,18.23c-.87.2-.5,1.53.36,1.33Z"/><path class="cls-2" d="M37.73,8.23l-5.61,4.48c-.7.55.28,1.52,1,1L38.7,9.2c.7-.55-.28-1.52-1-1Z"/><path class="cls-2" d="M31.38,41l-3.21-6.67c-.39-.8-1.57-.1-1.19.69l3.21,6.68c.39.79,1.57.1,1.19-.7Z"/><path class="cls-2" d="M20.82,36.05v7.36a.69.69,0,0,0,1.38,0V36.05a.69.69,0,0,0-1.38,0Z"/><path class="cls-2" d="M12.83,41.65,16,35.28c.4-.78-.78-1.48-1.18-.69L11.64,41c-.4.79.79,1.49,1.19.7Z"/><g class="cls-3"><circle class="cls-4" cx="27.64" cy="21.96" r="10.81"/></g></g></g></svg>