<svg xmlns="http://www.w3.org/2000/svg" viewBox="0 0 40.71 23.64"><defs><style>.cls-1{fill:#d7d9e0;stroke:#dcdde5;stroke-miterlimit:10;stroke-width:0.46px;}</style></defs><title>Ativo 2</title><g id="Camada_2" data-name="Camada 2"><g id="carros"><path class="cls-1" d="M23.78,18.65H16.52a.33.33,0,0,1-.33-.29,7.11,7.11,0,0,0-.88-2.56,4.81,4.81,0,0,0-4.45-2.5,5,5,0,0,0-4.59,2.52,7.21,7.21,0,0,0-.89,2.54.31.31,0,0,1-.32.29H.55a.33.33,0,0,1-.23-.1.3.3,0,0,1-.09-.25,12,12,0,0,1,1.39-4.45,12.78,12.78,0,0,1,8-6.29A12.78,12.78,0,0,1,12.38,4,14.72,14.72,0,0,1,22.59.23a15.53,15.53,0,0,1,11.62,5A19.09,19.09,0,0,1,39,15.66a2.43,2.43,0,0,1,.54.16,1.39,1.39,0,0,1,.9,1.34,1.3,1.3,0,0,1-.38.95,2.36,2.36,0,0,1-1.52.53H35.25a.32.32,0,0,1-.32-.29A7.17,7.17,0,0,0,34,15.82a4.89,4.89,0,0,0-4.47-2.47A5,5,0,0,0,25,15.82a7,7,0,0,0-.91,2.54A.32.32,0,0,1,23.78,18.65Zm-7-.65h6.7a7.82,7.82,0,0,1,.93-2.49,5.66,5.66,0,0,1,5.12-2.81,5.56,5.56,0,0,1,5,2.8A7.66,7.66,0,0,1,35.53,18h3a1.7,1.7,0,0,0,1.06-.35.66.66,0,0,0,.19-.48c0-.85-1-.87-1.09-.87a.33.33,0,0,1-.32-.29A18.31,18.31,0,0,0,33.73,5.72,14.88,14.88,0,0,0,22.59.88a14.09,14.09,0,0,0-9.75,3.53A12,12,0,0,0,10.13,8a.36.36,0,0,1-.21.19,12,12,0,0,0-7.72,6A12.43,12.43,0,0,0,.92,18H4.78a7.45,7.45,0,0,1,.93-2.52,5.66,5.66,0,0,1,5.15-2.83,5.5,5.5,0,0,1,5,2.84A7.65,7.65,0,0,1,16.8,18Z"/><path class="cls-1" d="M29.54,23.42a4.68,4.68,0,1,1,4.68-4.68A4.69,4.69,0,0,1,29.54,23.42Zm0-8.7a4,4,0,1,0,4,4A4,4,0,0,0,29.54,14.72Z"/><path class="cls-1" d="M10.75,23.42a4.68,4.68,0,1,1,4.67-4.68A4.69,4.69,0,0,1,10.75,23.42Zm0-8.7a4,4,0,1,0,4,4A4,4,0,0,0,10.75,14.72Z"/><path class="cls-1" d="M33.46,8.32H11.91a.35.35,0,0,1-.28-.15.34.34,0,0,1,0-.31A10.13,10.13,0,0,1,15.8,3.37,13.71,13.71,0,0,1,22.56,1.7a13.17,13.17,0,0,1,6.6,1.68,12.88,12.88,0,0,1,4.58,4.44.3.3,0,0,1,0,.33A.32.32,0,0,1,33.46,8.32Zm-21-.65H32.86a12.13,12.13,0,0,0-4-3.72,12.5,12.5,0,0,0-6.27-1.6C18,2.35,14.23,4.33,12.44,7.67Z"/></g></g></svg>