<svg xmlns="http://www.w3.org/2000/svg" viewBox="0 0 1902.8 183.11"><defs><style>.cls-1{fill:#fff;}.cls-2,.cls-3,.cls-7{fill:#d7d9e0;}.cls-3,.cls-7{stroke:#dcdde5;stroke-miterlimit:10;}.cls-3{stroke-width:0.77px;}.cls-4,.cls-6{fill:#76c613;}.cls-4,.cls-5{opacity:0.3;}.cls-7{stroke-width:1.2px;}</style></defs><title>Ativo 8</title><g id="Camada_2" data-name="Camada 2"><g id="fundo_cidade" data-name="fundo cidade"><rect class="cls-1" x="199.59" width="47.62" height="164.26"/><rect class="cls-1" x="197.58" width="47.62" height="164.26"/><rect class="cls-1" x="367.03" y="30.12" width="36.94" height="132.65"/><rect class="cls-1" x="520.56" y="28.41" width="36.94" height="132.93"/><rect class="cls-1" x="624.65" y="42.88" width="62.62" height="121.15"/><rect class="cls-1" x="721.09" y="48.14" width="37.58" height="114.5"/><rect class="cls-1" x="888.97" y="2.32" width="48.93" height="158.88"/><rect class="cls-1" x="1057.69" y="31.72" width="35.53" height="132.27"/><rect class="cls-1" x="1189" y="51.45" width="35.53" height="113.72"/><rect class="cls-1" x="1228.99" y="3.71" width="48.69" height="160.12"/><rect class="cls-1" x="1341.18" y="28.41" width="48.69" height="135.41"/><rect class="cls-1" x="1509.78" y="32.75" width="37.9" height="128.24"/><rect class="cls-1" x="1626.41" y="13.6" width="37.9" height="146.89"/><rect class="cls-1" x="1667.53" y="47.75" width="37.9" height="115.35"/><rect class="cls-1" x="1769.78" y="41.97" width="61.62" height="121.13"/><rect class="cls-1" x="1866.43" y="35.17" width="36.37" height="127.93"/><rect class="cls-1" x="825.96" y="42.88" width="60.97" height="122.53"/><rect class="cls-1" x="31.47" y="49.91" width="35.9" height="113.8"/><rect class="cls-1" x="68.35" y="107.85" width="63.05" height="55.85"/><rect class="cls-1" x="248.98" y="92.58" width="114.62" height="68.13"/><rect class="cls-1" x="408.29" y="95.48" width="39.1" height="68.13"/><rect class="cls-1" x="445.25" y="76.08" width="39.1" height="87.54"/><rect class="cls-1" x="561.51" y="105.57" width="59.48" height="59.48"/><rect class="cls-1" x="758.89" y="70.73" width="59.48" height="91.77"/><rect class="cls-1" x="942.87" y="74.96" width="114.09" height="86"/><rect class="cls-1" x="1096.74" y="92.98" width="41.96" height="72.19"/><rect class="cls-1" x="1279.72" y="73.57" width="60.02" height="90.25"/><rect class="cls-1" x="1392.18" y="91.8" width="115.54" height="70.95"/><rect class="cls-1" x="1554.3" y="91.8" width="36.11" height="70.95"/><rect class="cls-1" x="1591.67" y="75.39" width="36.11" height="87.37"/><rect class="cls-1" x="1707.13" y="105.02" width="60.04" height="66.15"/><rect class="cls-1" x="134.83" y="44" width="60.03" height="119.7"/></g><g id="cidade"><path class="cls-2" d="M23.77,139.74a44.72,44.72,0,0,0-9.09-14.68c-.6-.65-1.57.32-1,1a45.5,45.5,0,0,1,5.2,6.9l-.05,0-5.6,5.6v-13a.69.69,0,0,0-1.37,0v13L6.31,133l-.07-.05A46.3,46.3,0,0,1,11.45,126c.6-.65-.37-1.62-1-1a45.64,45.64,0,0,0-9,14.44c-1.42,3.76-2.08,8-.82,11.88,1.52,4.71,5.74,7.64,10.11,9.47.82.34,1.18-1,.37-1.33-4.23-1.76-8.1-4.63-9.37-9.22a14,14,0,0,1-.14-6.3l10.25,10.24v5.9a.69.69,0,0,0,1.37,0v-5.88L23.52,144a15,15,0,0,1-.07,6.07c-1.11,4.7-5.19,7.68-9.44,9.45-.8.34-.45,1.67.37,1.33,4.38-1.83,8.34-4.64,10-9.24C25.83,147.78,25.1,143.48,23.77,139.74ZM2.08,142.5,2,142.43a29.52,29.52,0,0,1,1.1-3.29,39.12,39.12,0,0,1,2.43-5l6.37,6.36V152.3Zm21,0-9.82,9.82V140.51q3.18-3.18,6.37-6.37A42,42,0,0,1,22,138.9a27,27,0,0,1,1.19,3.52Z"/><path class="cls-2" d="M11.79,162.21l.21,9.95a.69.69,0,0,0,1.38,0c-.07-3.32-.15-6.63-.22-9.95A.69.69,0,0,0,11.79,162.21Z"/><path class="cls-2" d="M716.53,133.7A44.43,44.43,0,0,0,707.45,119c-.6-.66-1.57.32-1,1a45.5,45.5,0,0,1,5.2,6.9l-.06,0-5.59,5.6v-13a.69.69,0,0,0-1.38,0v13l-5.57-5.58-.07-.05a45.79,45.79,0,0,1,5.21-6.89c.6-.65-.37-1.63-1-1a45.67,45.67,0,0,0-9,14.44c-1.42,3.76-2.07,8-.82,11.88,1.52,4.71,5.75,7.64,10.12,9.46.82.34,1.17-1,.37-1.32-4.23-1.76-8.1-4.63-9.37-9.22a13.82,13.82,0,0,1-.14-6.3l10.24,10.24v5.9a.69.69,0,0,0,1.38,0v-5.88L716.29,138a15.08,15.08,0,0,1-.08,6.06c-1.1,4.71-5.19,7.69-9.43,9.46-.8.33-.45,1.66.37,1.32,4.37-1.82,8.34-4.64,10-9.23C718.6,141.74,717.87,137.43,716.53,133.7Zm-21.68,2.76-.09-.08a30.05,30.05,0,0,1,1.1-3.28,37.84,37.84,0,0,1,2.43-5l6.36,6.36v11.81Zm21,0L706,146.28V134.47l6.37-6.37a43.76,43.76,0,0,1,2.35,4.76,27,27,0,0,1,1.19,3.52Z"/><path class="cls-2" d="M704.56,156.17l.21,10a.69.69,0,0,0,1.38,0c-.08-3.32-.15-6.63-.22-10A.69.69,0,0,0,704.56,156.17Z"/><path class="cls-2" d="M194.59,42h-60a1,1,0,0,0-1,1v122a1,1,0,0,0,1,1h60a1,1,0,0,0,.69-.27l0,0,0,0a.94.94,0,0,0,.28-.7V43A1,1,0,0,0,194.59,42Zm-39.73,122H135.61v-120h57.94v120Z"/><path class="cls-2" d="M130.37,106.06h-60a1,1,0,0,0-1,1v58.36a1,1,0,0,0,1,1h60a1,1,0,0,0,.7-.27l0,0,0,0a.92.92,0,0,0,.28-.7V107.09A1,1,0,0,0,130.37,106.06ZM90.64,164.42H71.39V108.13h58v56.29Z"/><path class="cls-2" d="M245.56,1.65H198.69a1,1,0,0,0-1,1V165.2a1,1,0,0,0,1,1h46.87a1,1,0,0,0,.7-.28l0,0s0,0,0,0a.92.92,0,0,0,.28-.7V2.68A1,1,0,0,0,245.56,1.65ZM204.44,164.17h-4.72V3.71h44.81V164.17Z"/><path class="cls-2" d="M402.94,33.26H368.07a1,1,0,0,0-1,1V165.08a1,1,0,0,0,1,1h34.87a1,1,0,0,0,.7-.27l0,0,0,0a1,1,0,0,0,.27-.7V34.29A1,1,0,0,0,402.94,33.26ZM369.1,88.08V35.32h32.81V164.05H369.1v-76Z"/><path class="cls-2" d="M66.33,49.91H31.46a1,1,0,0,0-1,1v114.3a1,1,0,0,0,1,1H66.33A.92.92,0,0,0,67,166l0,0,0,0a1,1,0,0,0,.27-.69V50.94A1,1,0,0,0,66.33,49.91ZM32.49,164.2V52H65.3V164.2Z"/><path class="cls-2" d="M364.62,94.73H297.48a.9.9,0,0,0-.19-.15l-36-19.24L250.2,69.43a1,1,0,0,0-1.55.88v94.77a1,1,0,0,0,1,1H364.62a1,1,0,0,0,.7-.27l0,0,0,0a1,1,0,0,0,.27-.7V95.76A1,1,0,0,0,364.62,94.73ZM255.75,164.05h-5V72l34.46,18.42,10.5,5.61v68Zm70.94,0H297.8V96.79h65.79v67.26Z"/><path class="cls-2" d="M77.59,137.3H122.5a1,1,0,0,0,0-2.06H77.59a1,1,0,0,0,0,2.06Z"/><path class="cls-2" d="M38.13,137.3h22a1,1,0,0,0,0-2.06h-22a1,1,0,0,0,0,2.06Z"/><path class="cls-2" d="M85.28,130.42V114.73a1,1,0,0,0-2.06,0v15.69a1,1,0,0,0,2.06,0Z"/><path class="cls-2" d="M100.65,130.42V114.73a1,1,0,0,0-2.06,0v15.69a1,1,0,0,0,2.06,0Z"/><path class="cls-2" d="M116,130.42V114.73a1,1,0,0,0-2.06,0v15.69a1,1,0,0,0,2.06,0Z"/><path class="cls-2" d="M41.55,157.85v-15.7a1,1,0,0,0-2.06,0v15.7a1,1,0,0,0,2.06,0Z"/><path class="cls-2" d="M49.44,157.85v-15.7a1,1,0,0,0-2.06,0v15.7a1,1,0,0,0,2.06,0Z"/><path class="cls-2" d="M57.34,157.85v-15.7a1,1,0,0,0-2.06,0v15.7a1,1,0,0,0,2.06,0Z"/><path class="cls-2" d="M329.7,90.78v-6a1,1,0,0,0-2.06,0v6a1,1,0,0,0,2.06,0Z"/><path class="cls-2" d="M345.08,90.78v-6a1,1,0,0,0-2.06,0v6a1,1,0,0,0,2.06,0Z"/><path class="cls-2" d="M360.45,90.78v-6a1,1,0,0,0-2.06,0v6a1,1,0,0,0,2.06,0Z"/><path class="cls-2" d="M329.7,79.52V67.89a1,1,0,0,0-2.06,0V79.52a1,1,0,0,0,2.06,0Z"/><path class="cls-2" d="M345.08,79.52V67.89a1,1,0,0,0-2.06,0V79.52a1,1,0,0,0,2.06,0Z"/><path class="cls-2" d="M360.45,79.52V67.89a1,1,0,0,0-2.06,0V79.52a1,1,0,0,0,2.06,0Z"/><path class="cls-2" d="M149.47,75.08v-6a1,1,0,0,0-2.06,0v6a1,1,0,0,0,2.06,0Z"/><path class="cls-2" d="M164.85,75.08v-6a1,1,0,0,0-2.06,0v6a1,1,0,0,0,2.06,0Z"/><path class="cls-2" d="M180.22,75.08v-6a1,1,0,0,0-2.06,0v6a1,1,0,0,0,2.06,0Z"/><path class="cls-2" d="M149.47,63.83V52.19a1,1,0,0,0-2.06,0V63.83a1,1,0,0,0,2.06,0Z"/><path class="cls-2" d="M164.85,63.83V52.19a1,1,0,0,0-2.06,0V63.83a1,1,0,0,0,2.06,0Z"/><path class="cls-2" d="M180.22,63.83V52.19a1,1,0,0,0-2.06,0V63.83a1,1,0,0,0,2.06,0Z"/><path class="cls-2" d="M324.55,122.09a1,1,0,0,0,.69-.27l0,0,0,0a.92.92,0,0,0,.28-.7V108.8a1,1,0,0,0-1-1H312.29a1,1,0,0,0-1,1v12.26a1,1,0,0,0,1,1Zm-1-2.06H313.32v-10.2h10.19Z"/><path class="cls-2" d="M350,122.09a1,1,0,0,0,.7-.27l0,0,0,0a1,1,0,0,0,.27-.7V108.8a1,1,0,0,0-1-1H337.74a1,1,0,0,0-1,1v12.26a1,1,0,0,0,1,1ZM349,120h-10.2v-10.2H349Z"/><path class="cls-2" d="M325,129.63H312.77a1,1,0,0,0-1,1v12.26a1,1,0,0,0,1,1H325a.92.92,0,0,0,.69-.28l0,0,0,0a1,1,0,0,0,.28-.7V130.66A1,1,0,0,0,325,129.63Zm-1,12.26H313.8v-10.2H324Z"/><path class="cls-2" d="M351.51,130.66a1,1,0,0,0-1-1H338.22a1,1,0,0,0-1,1v12.26a1,1,0,0,0,1,1h12.26a.92.92,0,0,0,.7-.28l0,0,0,0a1,1,0,0,0,.27-.7Zm-2.06,11.23h-10.2v-10.2h10.2Z"/><path class="cls-2" d="M383.19,41.94h-8a1,1,0,0,0-1,1v8a1,1,0,0,0,1,1h8a.92.92,0,0,0,.7-.28l0,0,0,0a1,1,0,0,0,.27-.7V43A1,1,0,0,0,383.19,41.94Zm-1,8h-6V44h6Z"/><path class="cls-2" d="M395.85,41.94h-8a1,1,0,0,0-1,1v8a1,1,0,0,0,1,1h8a.92.92,0,0,0,.69-.28l0,0,0,0a1,1,0,0,0,.28-.7V43A1,1,0,0,0,395.85,41.94Zm-1,8h-6V44h6Z"/><path class="cls-2" d="M383.19,54.58h-8a1,1,0,0,0-1,1v8a1,1,0,0,0,1,1h8a1,1,0,0,0,.7-.27l0,0,0,0a1,1,0,0,0,.27-.7v-8A1,1,0,0,0,383.19,54.58Zm-1,8h-6v-6h6Z"/><path class="cls-2" d="M395.85,54.58h-8a1,1,0,0,0-1,1v8a1,1,0,0,0,1,1h8a1,1,0,0,0,.69-.27l0,0,0,0a.92.92,0,0,0,.28-.7v-8A1,1,0,0,0,395.85,54.58Zm-1,8h-6v-6h6Z"/><path class="cls-2" d="M383.19,66.86h-8a1,1,0,0,0-1,1v8a1,1,0,0,0,1,1h8a1,1,0,0,0,.7-.27l0,0,0,0a1,1,0,0,0,.27-.7v-8A1,1,0,0,0,383.19,66.86Zm-1,8h-6v-6h6Z"/><path class="cls-2" d="M395.85,66.86h-8a1,1,0,0,0-1,1v8a1,1,0,0,0,1,1h8a1,1,0,0,0,.69-.27l0,0,0,0a.92.92,0,0,0,.28-.7v-8A1,1,0,0,0,395.85,66.86Zm-1,8h-6v-6h6Z"/><path class="cls-2" d="M383.19,79.49h-8a1,1,0,0,0-1,1v8a1,1,0,0,0,1,1h8a.92.92,0,0,0,.7-.28l0,0,0,0a1,1,0,0,0,.27-.7v-8A1,1,0,0,0,383.19,79.49Zm-1,8h-6v-6h6Z"/><path class="cls-2" d="M395.85,79.49h-8a1,1,0,0,0-1,1v8a1,1,0,0,0,1,1h8a.92.92,0,0,0,.69-.28l0,0,0,0a.92.92,0,0,0,.28-.69v-8A1,1,0,0,0,395.85,79.49Zm-1,8h-6v-6h6Z"/><path class="cls-2" d="M383.19,90.84h-8a1,1,0,0,0-1,1v8a1,1,0,0,0,1,1h8a.92.92,0,0,0,.7-.28l0,0,0,0a1,1,0,0,0,.27-.69v-8A1,1,0,0,0,383.19,90.84Zm-1,8h-6v-6h6Z"/><path class="cls-2" d="M395.85,90.84h-8a1,1,0,0,0-1,1v8a1,1,0,0,0,1,1h8a.92.92,0,0,0,.69-.28l0,0,0,0a.92.92,0,0,0,.28-.69v-8A1,1,0,0,0,395.85,90.84Zm-1,8h-6v-6h6Z"/><path class="cls-2" d="M383.19,103.47h-8a1,1,0,0,0-1,1v8a1,1,0,0,0,1,1h8a.92.92,0,0,0,.7-.28l0,0,0,0a1,1,0,0,0,.27-.7v-8A1,1,0,0,0,383.19,103.47Zm-1,8h-6v-6h6Z"/><path class="cls-2" d="M395.85,103.47h-8a1,1,0,0,0-1,1v8a1,1,0,0,0,1,1h8a.92.92,0,0,0,.69-.28l0,0,0,0a1,1,0,0,0,.28-.7v-8A1,1,0,0,0,395.85,103.47Zm-1,8h-6v-6h6Z"/><path class="cls-2" d="M45.64,59.39h-8a1,1,0,0,0-1,1v8a1,1,0,0,0,1,1h8a1,1,0,0,0,.7-.27l0,0,0,0a1,1,0,0,0,.27-.7v-8A1,1,0,0,0,45.64,59.39Zm-1,8h-6v-6h6Z"/><path class="cls-2" d="M58.3,59.39h-8a1,1,0,0,0-1,1v8a1,1,0,0,0,1,1h8a1,1,0,0,0,.7-.27l0,0,0,0a.92.92,0,0,0,.28-.7v-8A1,1,0,0,0,58.3,59.39Zm-1,8h-6v-6h6Z"/><path class="cls-2" d="M45.64,72h-8a1,1,0,0,0-1,1v8a1,1,0,0,0,1,1h8a.92.92,0,0,0,.7-.28l0,0,0,0a1,1,0,0,0,.27-.7v-8A1,1,0,0,0,45.64,72Zm-1,8h-6v-6h6Z"/><path class="cls-2" d="M58.3,72h-8a1,1,0,0,0-1,1v8a1,1,0,0,0,1,1h8a1,1,0,0,0,.7-.28l0,0,0,0a1,1,0,0,0,.28-.7v-8A1,1,0,0,0,58.3,72Zm-1,8h-6v-6h6Z"/><path class="cls-2" d="M45.64,84.3h-8a1,1,0,0,0-1,1v8a1,1,0,0,0,1,1h8a.92.92,0,0,0,.7-.28l0,0,0,0a1,1,0,0,0,.27-.69v-8A1,1,0,0,0,45.64,84.3Zm-1,8h-6v-6h6Z"/><path class="cls-2" d="M58.3,84.3h-8a1,1,0,0,0-1,1v8a1,1,0,0,0,1,1h8a1,1,0,0,0,.7-.28l0,0,0,0a.92.92,0,0,0,.28-.69v-8A1,1,0,0,0,58.3,84.3Zm-1,8h-6v-6h6Z"/><path class="cls-2" d="M45.64,96.93h-8a1,1,0,0,0-1,1v8a1,1,0,0,0,1,1h8a.92.92,0,0,0,.7-.28l0,0,0,0a1,1,0,0,0,.27-.7V98A1,1,0,0,0,45.64,96.93Zm-1,8h-6V99h6Z"/><path class="cls-2" d="M58.3,96.93h-8a1,1,0,0,0-1,1v8a1,1,0,0,0,1,1h8a1,1,0,0,0,.7-.28l0,0,0,0a1,1,0,0,0,.28-.7V98A1,1,0,0,0,58.3,96.93Zm-1,8h-6V99h6Z"/><path class="cls-2" d="M45.64,108.28h-8a1,1,0,0,0-1,1v8a1,1,0,0,0,1,1h8a.92.92,0,0,0,.7-.28l0,0,0,0a1,1,0,0,0,.27-.7v-8A1,1,0,0,0,45.64,108.28Zm-1,8h-6v-6h6Z"/><path class="cls-2" d="M58.3,108.28h-8a1,1,0,0,0-1,1v8a1,1,0,0,0,1,1h8a1,1,0,0,0,.7-.28l0,0,0,0a1,1,0,0,0,.28-.7v-8A1,1,0,0,0,58.3,108.28Zm-1,8h-6v-6h6Z"/><path class="cls-2" d="M45.64,120.92h-8a1,1,0,0,0-1,1v8a1,1,0,0,0,1,1h8a1,1,0,0,0,.7-.27l0,0,0,0a1,1,0,0,0,.27-.7v-8A1,1,0,0,0,45.64,120.92Zm-1,8h-6v-6h6Z"/><path class="cls-2" d="M58.3,120.92h-8a1,1,0,0,0-1,1v8a1,1,0,0,0,1,1h8a1,1,0,0,0,.7-.27l0,0,0,0a.92.92,0,0,0,.28-.7v-8A1,1,0,0,0,58.3,120.92Zm-1,8h-6v-6h6Z"/><path class="cls-2" d="M255.32,113.56h34.12a1,1,0,0,0,0-2.06H255.32a1,1,0,0,0,0,2.06Z"/><path class="cls-2" d="M255.32,158.61h34.12a1,1,0,0,0,0-2.06H255.32a1,1,0,0,0,0,2.06Z"/><path class="cls-2" d="M374.34,119.69h21.29a1,1,0,0,0,0-2.06H374.34a1,1,0,0,0,0,2.06Z"/><path class="cls-2" d="M217.39,149.88a28,28,0,0,0-5.81-9.43.62.62,0,0,0-1,0,.73.73,0,0,0-1,0,.61.61,0,0,0-1,0,28.82,28.82,0,0,0-5.81,9.43,11.42,11.42,0,0,0-.39,7.43c1,3,3.71,4.86,6.5,6a.53.53,0,0,0,.71-.21.65.65,0,0,0,.33.17.61.61,0,0,0-.59.65c0,2.09.09,4.17.13,6.25a.69.69,0,0,0,1.38,0c-.05-2.08-.09-4.16-.14-6.25a.65.65,0,0,0-.54-.64.71.71,0,0,0,.41-.19.52.52,0,0,0,.71.22c2.79-1.18,5.24-2.91,6.41-5.8m-1.24-6.1-5.69,5.68v-6.69l3.68-3.67c.44.8.86,1.62,1.22,2.46A16.21,16.21,0,0,1,216.45,151.44Zm-2.73-5.9-3,3v-6.9A28.25,28.25,0,0,1,213.72,145.54Zm-4.33-3.94v6.88l-2.95-2.95A28,28,0,0,1,209.39,141.6Zm-3.68,5.15,3.68,3.67v6.69l-5.68-5.67a18.74,18.74,0,0,1,.79-2.22A24.5,24.5,0,0,1,205.71,146.75Zm-2.21,9.49a8.2,8.2,0,0,1-.13-3.2l6,6v3l-.14-.07C206.61,160.9,204.25,159.12,203.5,156.24Zm13.21-.24c-.58,3-3.13,4.9-5.8,6l-.15.08v-3l6-6A9.13,9.13,0,0,1,216.71,156Z"/><path class="cls-2" d="M398.47,142V129.68c0-1.89.69-5.59-1.5-6.51a7.89,7.89,0,0,0-2.87-.19H376.43c-1.1,0-2.34-.16-3.19.7a3.41,3.41,0,0,0-.7,2.69v31.42c0,3.14,3.08,2.72,5.28,2.72H396.1a1.1,1.1,0,0,0,.27,0c2.81-.38,2.1-4.29,2.1-6.28ZM376,158.45c-.45,0-1.41.2-1.41-.46V126.82c0-.33-.22-1.71.31-1.78a19.42,19.42,0,0,1,2.53,0H395c.41,0,1.41-.21,1.41.42v31.09c0,.57.28,1.66-.43,1.9Z"/><path class="cls-2" d="M257.34,116.5v36.83h0a1,1,0,0,0,2.06,0V116.51h0a1,1,0,0,0-2.06,0Z"/><path class="cls-2" d="M264.25,116.5v36.83h0a1,1,0,0,0,2.06,0V116.51h0a1,1,0,0,0-2.06,0Z"/><path class="cls-2" d="M271.16,116.5v36.83h0a1,1,0,0,0,2.06,0V116.51h0a1,1,0,0,0-2.06,0Z"/><path class="cls-2" d="M278.06,116.5v36.83h0a1,1,0,0,0,2.06,0V116.51h0a1,1,0,0,0-2.06,0Z"/><path class="cls-2" d="M285,116.5v36.83h0a1,1,0,0,0,2.06,0V116.51h0a1,1,0,0,0-2.06,0Z"/><path class="cls-2" d="M285.59,96.16l-8.31-3.78-14.5-6.62L258,83.56c-1.35-.61-3.19-1.13-3.63.92a1.26,1.26,0,0,0,0,.28v19.77c0,2.75,2.4,2.41,4.41,2.41h26.47c1.82,0,1.94-1.64,1.94-3V98.25A2.18,2.18,0,0,0,285.59,96.16Zm-.54,2s0-.08,0,0Zm-3.79,6.76H256.35V85.08h0l1.22.56,4.16,1.9L273.62,93l9.84,4.49,1.59.72v6.71h-3.79Z"/><path class="cls-2" d="M77.66,149.11H122.5a.92.92,0,0,0,.69-.28l0,0,0,0a1,1,0,0,0,.28-.7v-6.6a1,1,0,0,0-1-1H77.66a1,1,0,0,0-1,1v6.6A1,1,0,0,0,77.66,149.11Zm40.85-6.6h3v4.54H78.69v-4.54Z"/><path class="cls-2" d="M123.81,152.49a1,1,0,0,0-1-1H78a1,1,0,0,0-1,1v6.6a1,1,0,0,0,1,1h44.83a1,1,0,0,0,.7-.27l0,0,0,0a.92.92,0,0,0,.28-.7Zm-41.88,5.57H79v-4.54h42.77v4.54Z"/><path class="cls-2" d="M157.6,132.51a1,1,0,0,0,.7-.28l0,0,0,0a1,1,0,0,0,.27-.7V119.22a1,1,0,0,0-1-1H145.34a1,1,0,0,0-1,1v12.25a1,1,0,0,0,1,1Zm-1-2.07h-10.2V120.25h10.2Z"/><path class="cls-2" d="M183.06,132.51a1,1,0,0,0,.7-.28l0,0,0,0a.92.92,0,0,0,.28-.7V119.22a1,1,0,0,0-1-1H170.8a1,1,0,0,0-1,1v12.25a1,1,0,0,0,1,1Zm-1-2.07h-10.2V120.25H182Z"/><path class="cls-2" d="M158.08,140H145.82a1,1,0,0,0-1,1v12.26a1,1,0,0,0,1,1h12.26a1,1,0,0,0,.7-.27l0,0,0,0a1,1,0,0,0,.27-.7V141.07A1,1,0,0,0,158.08,140Zm-1,12.26h-10.2V142.1h10.2Z"/><path class="cls-2" d="M183.54,140H171.28a1,1,0,0,0-1,1v12.26a1,1,0,0,0,1,1h12.26a1,1,0,0,0,.7-.27l0,0,0,0a.92.92,0,0,0,.28-.7V141.07A1,1,0,0,0,183.54,140Zm-1,12.26h-10.2V142.1h10.2Z"/><path class="cls-2" d="M188.06,82.13H143.23a1,1,0,0,0-1,1v6.6a1,1,0,0,0,1,1h44.83a.92.92,0,0,0,.7-.28l0,0,0,0a1,1,0,0,0,.27-.7v-6.6A1,1,0,0,0,188.06,82.13Zm-1,2.06v4.54H144.26V84.19"/><path class="cls-2" d="M188.06,95.44H143.23a1,1,0,0,0-1,1v11.45a1,1,0,0,0,1,1h44.83a1,1,0,0,0,.7-.27l0,0,0,0a1,1,0,0,0,.27-.7V96.47A1,1,0,0,0,188.06,95.44Zm-40.84,11.45h-3V97.5H187v9.39Z"/><path class="cls-2" d="M686.24,42.24h-60a1,1,0,0,0-1,1v122a1,1,0,0,0,1,1h60a1,1,0,0,0,.7-.27l0,0,0,0a.92.92,0,0,0,.28-.7v-122A1,1,0,0,0,686.24,42.24Zm-39.73,122H627.26V44.3h58v120Z"/><path class="cls-2" d="M622,106.3H562a1,1,0,0,0-1,1v58.35a1,1,0,0,0,1,1h60a1,1,0,0,0,.7-.27l0,0,0,0a.92.92,0,0,0,.28-.7V107.33A1,1,0,0,0,622,106.3Zm-39.73,58.35H563V108.36h58v56.29Z"/><path class="cls-2" d="M558,28.49H523.11a1.16,1.16,0,0,0-1,1.23V165.28a1.15,1.15,0,0,0,1,1.22H558a.85.85,0,0,0,.69-.33l0,0,0,0a1.19,1.19,0,0,0,.28-.82V29.72A1.16,1.16,0,0,0,558,28.49ZM524.14,164.05V30.94H557V164.05Z"/><path class="cls-2" d="M569.24,137.54h44.91a1,1,0,0,0,0-2.06H569.24a1,1,0,0,0,0,2.06Z"/><path class="cls-2" d="M529.78,137.54h22a1,1,0,0,0,0-2.06h-22a1,1,0,0,0,0,2.06Z"/><path class="cls-2" d="M576.93,130.65V115a1,1,0,0,0-2.06,0v15.69a1,1,0,0,0,2.06,0Z"/><path class="cls-2" d="M592.31,130.65V115a1,1,0,0,0-2.06,0v15.69a1,1,0,0,0,2.06,0Z"/><path class="cls-2" d="M607.68,130.65V115a1,1,0,0,0-2.06,0v15.69a1,1,0,0,0,2.06,0Z"/><path class="cls-2" d="M533.2,158.08V142.39a1,1,0,0,0-2.06,0v15.69a1,1,0,0,0,2.06,0Z"/><path class="cls-2" d="M541.09,158.08V142.39a1,1,0,0,0-2.06,0v15.69a1,1,0,0,0,2.06,0Z"/><path class="cls-2" d="M549,158.08V142.39a1,1,0,0,0-2.06,0v15.69a1,1,0,0,0,2.06,0Z"/><path class="cls-2" d="M641.12,75.31v-6a1,1,0,0,0-2.06,0v6a1,1,0,0,0,2.06,0Z"/><path class="cls-2" d="M656.5,75.31v-6a1,1,0,0,0-2.06,0v6a1,1,0,0,0,2.06,0Z"/><path class="cls-2" d="M671.87,75.31v-6a1,1,0,0,0-2.06,0v6a1,1,0,0,0,2.06,0Z"/><path class="cls-2" d="M641.12,64.06V52.42a1,1,0,0,0-2.06,0V64.06a1,1,0,0,0,2.06,0Z"/><path class="cls-2" d="M656.5,64.06V52.42a1,1,0,0,0-2.06,0V64.06a1,1,0,0,0,2.06,0Z"/><path class="cls-2" d="M671.87,64.06V52.42a1,1,0,0,0-2.06,0V64.06a1,1,0,0,0,2.06,0Z"/><path class="cls-2" d="M537.61,37.84h-8a1,1,0,0,0-1,1v8a1,1,0,0,0,1,1h8a1,1,0,0,0,.7-.28l0,0,0,0a1,1,0,0,0,.28-.7v-8A1,1,0,0,0,537.61,37.84Zm-1,8h-6v-6h6Z"/><path class="cls-2" d="M550.26,37.84h-8a1,1,0,0,0-1,1v8a1,1,0,0,0,1,1h8a.92.92,0,0,0,.7-.28l0,0,0,0a1,1,0,0,0,.27-.7v-8A1,1,0,0,0,550.26,37.84Zm-1,8h-6v-6h6Z"/><path class="cls-2" d="M537.61,50.47h-8a1,1,0,0,0-1,1v8a1,1,0,0,0,1,1h8a1,1,0,0,0,.7-.28l0,0s0,0,0,0a1,1,0,0,0,.28-.7v-8A1,1,0,0,0,537.61,50.47Zm-1,8h-6v-6h6Z"/><path class="cls-2" d="M550.26,50.47h-8a1,1,0,0,0-1,1v8a1,1,0,0,0,1,1h8a.92.92,0,0,0,.7-.28l0,0,0,0a1,1,0,0,0,.27-.7v-8A1,1,0,0,0,550.26,50.47Zm-1,8h-6v-6h6Z"/><path class="cls-2" d="M537.61,62.75h-8a1,1,0,0,0-1,1v8a1,1,0,0,0,1,1h8a1,1,0,0,0,.7-.28l0,0,0,0a1,1,0,0,0,.28-.7v-8A1,1,0,0,0,537.61,62.75Zm-1,8h-6v-6h6Z"/><path class="cls-2" d="M550.26,62.75h-8a1,1,0,0,0-1,1v8a1,1,0,0,0,1,1h8a.92.92,0,0,0,.7-.28l0,0,0,0a1,1,0,0,0,.27-.7v-8A1,1,0,0,0,550.26,62.75Zm-1,8h-6v-6h6Z"/><path class="cls-2" d="M537.61,75.39h-8a1,1,0,0,0-1,1v8a1,1,0,0,0,1,1h8a1,1,0,0,0,.7-.27l0,0s0,0,0,0a.92.92,0,0,0,.28-.7v-8A1,1,0,0,0,537.61,75.39Zm-1,8h-6v-6h6Z"/><path class="cls-2" d="M550.26,75.39h-8a1,1,0,0,0-1,1v8a1,1,0,0,0,1,1h8a1,1,0,0,0,.7-.27l0,0,0,0a1,1,0,0,0,.27-.7v-8A1,1,0,0,0,550.26,75.39Zm-1,8h-6v-6h6Z"/><path class="cls-2" d="M537.61,86.74h-8a1,1,0,0,0-1,1v8a1,1,0,0,0,1,1h8a1,1,0,0,0,.7-.27l0,0s0,0,0,0a.92.92,0,0,0,.28-.7v-8A1,1,0,0,0,537.61,86.74Zm-1,8h-6v-6h6Z"/><path class="cls-2" d="M550.26,86.74h-8a1,1,0,0,0-1,1v8a1,1,0,0,0,1,1h8a1,1,0,0,0,.7-.27l0,0,0,0a1,1,0,0,0,.27-.7v-8A1,1,0,0,0,550.26,86.74Zm-1,8h-6v-6h6Z"/><path class="cls-2" d="M537.61,99.37h-8a1,1,0,0,0-1,1v8a1,1,0,0,0,1,1h8a1,1,0,0,0,.7-.28l0,0,0,0a.92.92,0,0,0,.28-.69v-8A1,1,0,0,0,537.61,99.37Zm-1,8h-6v-6h6Z"/><path class="cls-2" d="M550.26,99.37h-8a1,1,0,0,0-1,1v8a1,1,0,0,0,1,1h8a.92.92,0,0,0,.7-.28l0,0,0,0a1,1,0,0,0,.27-.69v-8A1,1,0,0,0,550.26,99.37Zm-1,8h-6v-6h6Z"/><path class="cls-2" d="M569.32,149.34h44.83a1,1,0,0,0,.7-.28l0,0,0,0a1,1,0,0,0,.28-.7v-6.6a1,1,0,0,0-1-1H569.32a1,1,0,0,0-1,1v6.6A1,1,0,0,0,569.32,149.34Zm40.84-6.6h3v4.54H570.35v-4.54Z"/><path class="cls-2" d="M615.46,152.73a1,1,0,0,0-1-1H569.6a1,1,0,0,0-1,1v6.6a1,1,0,0,0,1,1h44.83a1,1,0,0,0,.7-.28l0,0,0,0a.92.92,0,0,0,.28-.69Zm-41.88,5.57h-3v-4.54H613.4v4.54Z"/><path class="cls-2" d="M649.25,132.74a.92.92,0,0,0,.7-.28l0,0,0,0a1,1,0,0,0,.27-.7V119.45a1,1,0,0,0-1-1H637a1,1,0,0,0-1,1v12.26a1,1,0,0,0,1,1Zm-1-2.06H638v-10.2h10.2Z"/><path class="cls-2" d="M674.71,132.74a1,1,0,0,0,.7-.28l0,0,0,0a1,1,0,0,0,.28-.7V119.45a1,1,0,0,0-1-1H662.45a1,1,0,0,0-1,1v12.26a1,1,0,0,0,1,1Zm-1-2.06h-10.2v-10.2h10.2Z"/><path class="cls-2" d="M649.73,140.27H637.47a1,1,0,0,0-1,1v12.26a1,1,0,0,0,1,1h12.26a1,1,0,0,0,.7-.27l0,0,0,0a1,1,0,0,0,.27-.7V141.3A1,1,0,0,0,649.73,140.27Zm-1,12.26H638.5v-10.2h10.2Z"/><path class="cls-2" d="M675.19,140.27H662.93a1,1,0,0,0-1,1v12.26a1,1,0,0,0,1,1h12.26a1,1,0,0,0,.7-.27l0,0s0,0,0,0a.92.92,0,0,0,.28-.7V141.3A1,1,0,0,0,675.19,140.27Zm-1,12.26H664v-10.2h10.2Z"/><path class="cls-2" d="M679.72,82.36H634.88a1,1,0,0,0-1,1V90a1,1,0,0,0,1,1h44.84a.92.92,0,0,0,.69-.28l0,0,0,0a1,1,0,0,0,.28-.7v-6.6A1,1,0,0,0,679.72,82.36Zm-1,2.06V89H635.92V84.42"/><path class="cls-2" d="M679.72,95.68H634.88a1,1,0,0,0-1,1v11.44a1,1,0,0,0,1,1h44.84a1,1,0,0,0,.69-.28l0,0,0,0a.92.92,0,0,0,.28-.7V96.71A1,1,0,0,0,679.72,95.68Zm-40.85,11.44h-3V97.74h42.77v9.38Z"/><path class="cls-2" d="M212.08,7.76h-7.57a1,1,0,0,0-1,1V56.55a1,1,0,0,0,1,1h7.57a1,1,0,0,0,.7-.27l0,0,0,0a1,1,0,0,0,.27-.7V8.79A1,1,0,0,0,212.08,7.76Zm-6.54,2.06h5.51v45.7h-5.51V9.82Z"/><path class="cls-2" d="M225.77,7.76H218.2a1,1,0,0,0-1,1V56.55a1,1,0,0,0,1,1h7.57a1,1,0,0,0,.7-.27l0,0,0,0a.92.92,0,0,0,.28-.7V8.79A1,1,0,0,0,225.77,7.76Zm-6.54,2.06h5.51v45.7h-5.51V9.82Z"/><path class="cls-2" d="M239.45,7.76h-7.57a1,1,0,0,0-1,1V56.55a1,1,0,0,0,1,1h7.57a1,1,0,0,0,.7-.27l0,0,0,0a1,1,0,0,0,.27-.7V8.79A1,1,0,0,0,239.45,7.76Zm-6.54,2.06h5.51v45.7h-5.51V9.82Z"/><path class="cls-2" d="M212.08,62.93h-7.57a1,1,0,0,0-1,1V74.6a1,1,0,0,0,1,1h7.57a.92.92,0,0,0,.7-.28l0,0s0,0,0,0a1,1,0,0,0,.27-.69V64A1,1,0,0,0,212.08,62.93Zm-1,10.64h-5.51V65h5.51Z"/><path class="cls-2" d="M225.77,62.93H218.2a1,1,0,0,0-1,1V74.6a1,1,0,0,0,1,1h7.57a1,1,0,0,0,.7-.28l0,0,0,0a1,1,0,0,0,.28-.7V64A1,1,0,0,0,225.77,62.93Zm-1,10.64h-5.51V65h5.51Z"/><path class="cls-2" d="M239.45,62.93h-7.57a1,1,0,0,0-1,1V74.6a1,1,0,0,0,1,1h7.57a.92.92,0,0,0,.7-.28l0,0,0,0a1,1,0,0,0,.27-.69V64A1,1,0,0,0,239.45,62.93Zm-1,10.64h-5.51V65h5.51Z"/><path class="cls-2" d="M212.08,79.63h-7.57a1,1,0,0,0-1,1V91.29a1,1,0,0,0,1,1h7.57a1,1,0,0,0,.7-.27l0,0,0,0a1,1,0,0,0,.27-.7V80.66A1,1,0,0,0,212.08,79.63Zm-1,10.63h-5.51V81.69h5.51Z"/><path class="cls-2" d="M225.77,79.63H218.2a1,1,0,0,0-1,1V91.29a1,1,0,0,0,1,1h7.57a1,1,0,0,0,.7-.27l0,0,0,0a.94.94,0,0,0,.28-.7V80.66A1,1,0,0,0,225.77,79.63Zm-1,10.63h-5.51V81.69h5.51Z"/><path class="cls-2" d="M239.45,79.63h-7.57a1,1,0,0,0-1,1V91.29a1,1,0,0,0,1,1h7.57a1,1,0,0,0,.7-.27l0,0,0,0a1,1,0,0,0,.27-.7V80.66A1,1,0,0,0,239.45,79.63Zm-1,10.63h-5.51V81.69h5.51Z"/><path class="cls-2" d="M212.08,95.63h-7.57a1,1,0,0,0-1,1v10.63a1,1,0,0,0,1,1h7.57a1,1,0,0,0,.7-.27l0,0,0,0a1,1,0,0,0,.27-.7V96.66A1,1,0,0,0,212.08,95.63Zm-1,10.63h-5.51V97.69h5.51Z"/><path class="cls-2" d="M225.77,95.63H218.2a1,1,0,0,0-1,1v10.63a1,1,0,0,0,1,1h7.57a1,1,0,0,0,.7-.27l0,0,0,0a.92.92,0,0,0,.28-.7V96.66A1,1,0,0,0,225.77,95.63Zm-1,10.63h-5.51V97.69h5.51Z"/><path class="cls-2" d="M239.45,95.63h-7.57a1,1,0,0,0-1,1v10.63a1,1,0,0,0,1,1h7.57a1,1,0,0,0,.7-.27l0,0,0,0a1,1,0,0,0,.27-.7V96.66A1,1,0,0,0,239.45,95.63Zm-1,10.63h-5.51V97.69h5.51Z"/><path class="cls-2" d="M204.33,115h34.94a1,1,0,0,0,0-2.06H204.33a1,1,0,0,0,0,2.06Z"/><path class="cls-2" d="M204.33,122.47h34.94a1,1,0,0,0,0-2.07H204.33a1,1,0,0,0,0,2.07Z"/><path class="cls-2" d="M204.33,129.93h34.94a1,1,0,0,0,0-2.06H204.33a1,1,0,0,0,0,2.06Z"/><path class="cls-2" d="M204.33,137.39h34.94a1,1,0,0,0,0-2.06H204.33a1,1,0,0,0,0,2.06Z"/><path class="cls-2" d="M222.39,144.41h17a1,1,0,0,0,0-2.06h-17a1,1,0,0,0,0,2.06Z"/><path class="cls-2" d="M222.39,151.88h17a1,1,0,0,0,0-2.06h-17a1,1,0,0,0,0,2.06Z"/><path class="cls-2" d="M305.2,158.27h39.42a1,1,0,0,0,0-2.07H305.2a1,1,0,0,0,0,2.07Z"/><path class="cls-2" d="M361.28,152.36a29.68,29.68,0,0,0-6.18-10.09.64.64,0,0,0-1,.08.74.74,0,0,0-1.12,0,.63.63,0,0,0-1-.08,30.75,30.75,0,0,0-6.1,9.85,12.24,12.24,0,0,0-.5,7.94c1,3.22,3.93,5.2,6.9,6.45a.53.53,0,0,0,.73-.25.73.73,0,0,0,1.06,0,.53.53,0,0,0,.73.26c3-1.25,5.61-3.11,6.82-6.22C362.6,157.76,362.14,154.86,361.28,152.36Zm-.94,1.57-6.13,6.13v-7.23l4-4a28.21,28.21,0,0,1,1.29,2.58A16.1,16.1,0,0,1,360.34,153.93Zm-2.89-6.27-3.24,3.23v-7.54A30,30,0,0,1,357.45,147.66Zm-4.61-4.3v7.52l-3.24-3.25A30.53,30.53,0,0,1,352.84,143.36Zm-4,5.49,4,4V160l-6.11-6.11a21.1,21.1,0,0,1,.74-2.16A26,26,0,0,1,348.87,148.85ZM346.5,159a8.57,8.57,0,0,1-.11-3.46l6.45,6.46v3.33a.69.69,0,0,0-.2-.13C349.81,164,347.28,162.08,346.5,159Zm14.12-.24c-.61,3.21-3.34,5.24-6.19,6.44a.55.55,0,0,0-.22.14V162l6.47-6.46A9.88,9.88,0,0,1,360.62,158.75Z"/><path class="cls-2" d="M352.77,167.2l.15,6.64a.69.69,0,0,0,1.37,0l-.14-6.64A.69.69,0,0,0,352.77,167.2Z"/><path class="cls-3" d="M446.84,165.3H412a.55.55,0,0,1-.55-.55V96.83a.55.55,0,0,1,.55-.55h34.81a.55.55,0,0,1,.55.55v67.92A.55.55,0,0,1,446.84,165.3Zm-34.26-1.1h33.71V97.38H412.58Z"/><path class="cls-3" d="M484.13,165.3H449.32a.54.54,0,0,1-.55-.55V77.8a.55.55,0,0,1,.55-.55h34.81a.55.55,0,0,1,.55.55v87A.55.55,0,0,1,484.13,165.3Zm-34.26-1.1h33.7V78.35h-33.7Z"/><path class="cls-3" d="M442.36,104.32H416.42a.4.4,0,0,1,0-.79h25.94a.4.4,0,0,1,0,.79Z"/><path class="cls-3" d="M419.69,160a.39.39,0,0,1-.4-.39V139.67a.4.4,0,1,1,.79,0v19.91A.39.39,0,0,1,419.69,160Z"/><path class="cls-3" d="M424.59,160a.39.39,0,0,1-.4-.39V139.67a.4.4,0,1,1,.79,0v19.91A.39.39,0,0,1,424.59,160Z"/><path class="cls-3" d="M429.49,160a.39.39,0,0,1-.4-.39V139.67a.4.4,0,1,1,.79,0v19.91A.39.39,0,0,1,429.49,160Z"/><path class="cls-3" d="M434.39,160a.39.39,0,0,1-.4-.39V139.67a.4.4,0,1,1,.79,0v19.91A.39.39,0,0,1,434.39,160Z"/><path class="cls-3" d="M439.28,160a.39.39,0,0,1-.39-.39V139.67a.4.4,0,1,1,.79,0v19.91A.39.39,0,0,1,439.28,160Z"/><path class="cls-3" d="M442.36,136.06H416.42a.39.39,0,0,1-.39-.39.4.4,0,0,1,.39-.4h25.94a.4.4,0,0,1,.39.4A.39.39,0,0,1,442.36,136.06Z"/><path class="cls-3" d="M457.81,115.05h-4.26a.4.4,0,0,1-.39-.4V82.5a.4.4,0,0,1,.39-.39h4.26a.39.39,0,0,1,.39.39v32.15A.39.39,0,0,1,457.81,115.05Zm-3.86-.79h3.46V82.9H454Z"/><path class="cls-3" d="M465.2,115.05H461a.4.4,0,0,1-.4-.4V82.5a.4.4,0,0,1,.4-.39h4.25a.39.39,0,0,1,.39.39v32.15A.39.39,0,0,1,465.2,115.05Zm-3.86-.79h3.47V82.9h-3.47Z"/><path class="cls-3" d="M472.59,115.05h-4.25a.4.4,0,0,1-.4-.4V82.5a.4.4,0,0,1,.4-.39h4.25a.4.4,0,0,1,.4.39v32.15A.4.4,0,0,1,472.59,115.05Zm-3.86-.79h3.47V82.9h-3.47Z"/><path class="cls-3" d="M480,115.05h-4.26a.39.39,0,0,1-.39-.4V82.5a.39.39,0,0,1,.39-.39H480a.4.4,0,0,1,.39.39v32.15A.4.4,0,0,1,480,115.05Zm-3.87-.79h3.47V82.9h-3.47Z"/><path class="cls-3" d="M457.81,125.93h-4.26a.4.4,0,0,1-.39-.4v-4.25a.4.4,0,0,1,.39-.4h4.26a.39.39,0,0,1,.39.4v4.25A.39.39,0,0,1,457.81,125.93Zm-3.86-.79h3.46v-3.47H454Z"/><path class="cls-3" d="M465.2,125.93H461a.4.4,0,0,1-.4-.4v-4.25a.4.4,0,0,1,.4-.4h4.25a.39.39,0,0,1,.39.4v4.25A.39.39,0,0,1,465.2,125.93Zm-3.86-.79h3.47v-3.47h-3.47Z"/><path class="cls-3" d="M472.59,125.93h-4.25a.4.4,0,0,1-.4-.4v-4.25a.4.4,0,0,1,.4-.4h4.25a.4.4,0,0,1,.4.4v4.25A.4.4,0,0,1,472.59,125.93Zm-3.86-.79h3.47v-3.47h-3.47Z"/><path class="cls-3" d="M480,125.93h-4.26a.39.39,0,0,1-.39-.4v-4.25a.39.39,0,0,1,.39-.4H480a.4.4,0,0,1,.39.4v4.25A.4.4,0,0,1,480,125.93Zm-3.87-.79h3.47v-3.47h-3.47Z"/><path class="cls-3" d="M457.81,132.76h-4.26a.4.4,0,0,1-.39-.39v-4.26a.39.39,0,0,1,.39-.39h4.26a.38.38,0,0,1,.39.39v4.26A.39.39,0,0,1,457.81,132.76ZM454,132h3.46v-3.46H454Z"/><path class="cls-3" d="M465.2,132.76H461a.4.4,0,0,1-.4-.39v-4.26a.39.39,0,0,1,.4-.39h4.25a.38.38,0,0,1,.39.39v4.26A.39.39,0,0,1,465.2,132.76Zm-3.86-.79h3.47v-3.46h-3.47Z"/><path class="cls-3" d="M472.59,132.76h-4.25a.4.4,0,0,1-.4-.39v-4.26a.39.39,0,0,1,.4-.39h4.25a.39.39,0,0,1,.4.39v4.26A.4.4,0,0,1,472.59,132.76Zm-3.86-.79h3.47v-3.46h-3.47Z"/><path class="cls-3" d="M480,132.76h-4.26a.39.39,0,0,1-.39-.39v-4.26a.38.38,0,0,1,.39-.39H480a.39.39,0,0,1,.39.39v4.26A.4.4,0,0,1,480,132.76Zm-3.87-.79h3.47v-3.46h-3.47Z"/><path class="cls-3" d="M457.81,139.59h-4.26a.39.39,0,0,1-.39-.39V135a.4.4,0,0,1,.39-.4h4.26a.39.39,0,0,1,.39.4v4.25A.38.38,0,0,1,457.81,139.59Zm-3.86-.78h3.46v-3.47H454Z"/><path class="cls-3" d="M465.2,139.59H461a.39.39,0,0,1-.4-.39V135a.4.4,0,0,1,.4-.4h4.25a.39.39,0,0,1,.39.4v4.25A.38.38,0,0,1,465.2,139.59Zm-3.86-.78h3.47v-3.47h-3.47Z"/><path class="cls-3" d="M472.59,139.59h-4.25a.39.39,0,0,1-.4-.39V135a.4.4,0,0,1,.4-.4h4.25a.4.4,0,0,1,.4.4v4.25A.39.39,0,0,1,472.59,139.59Zm-3.86-.78h3.47v-3.47h-3.47Z"/><path class="cls-3" d="M480,139.59h-4.26a.38.38,0,0,1-.39-.39V135a.39.39,0,0,1,.39-.4H480a.4.4,0,0,1,.39.4v4.25A.39.39,0,0,1,480,139.59Zm-3.87-.78h3.47v-3.47h-3.47Z"/><path class="cls-3" d="M508.6,161H492.66c-2.19,0-3-.76-3-2.89V124.8a3.93,3.93,0,0,1,3.92-3.92h14.05a3.93,3.93,0,0,1,3.92,3.92v33.52C511.58,160.61,510.62,161,508.6,161Zm-15-39a2.82,2.82,0,0,0-2.82,2.81v33.32c0,1.52.28,1.79,1.87,1.79H508.6c1.68,0,1.88-.17,1.88-1.59V124.8a2.82,2.82,0,0,0-2.82-2.81Z"/><path class="cls-3" d="M506.12,135.69H495.23a2.72,2.72,0,0,1-2.72-2.72v-6.16a2.71,2.71,0,0,1,2.72-2.71h10.89a2.71,2.71,0,0,1,2.72,2.71V133A2.72,2.72,0,0,1,506.12,135.69ZM495.23,125.2a1.61,1.61,0,0,0-1.61,1.61V133a1.61,1.61,0,0,0,1.61,1.61h10.89a1.62,1.62,0,0,0,1.62-1.61v-6.16a1.62,1.62,0,0,0-1.62-1.61Z"/><path class="cls-3" d="M515.74,154.8c-1.43,0-2.29-1.05-2.29-2.81V140.55c0-2.49-1.58-2.82-2.43-3l-.1,0a.55.55,0,0,1,.22-1.08l.1,0a3.7,3.7,0,0,1,3.32,4.07V152c0,1.13.39,1.7,1.18,1.7.37,0,1.22,0,1.22-1.77V134.54a.55.55,0,0,1,.55-.55.55.55,0,0,1,.55.55v17.38C518.06,154.42,516.61,154.8,515.74,154.8Z"/><path class="cls-3" d="M518.41,135.09h-1.79a.56.56,0,0,1-.56-.55v-4.91a.56.56,0,0,1,.56-.55h1.79a.55.55,0,0,1,.55.55v4.91A.55.55,0,0,1,518.41,135.09Zm-1.24-1.1h.69v-3.8h-.69Z"/><path class="cls-3" d="M517.51,130.19a.56.56,0,0,1-.55-.56v-1.07a1.62,1.62,0,0,0-.42-1.16,1.91,1.91,0,0,0-1.4-.45.56.56,0,0,1,0-1.11,3,3,0,0,1,2.19.78,2.69,2.69,0,0,1,.73,1.93v1.08A.55.55,0,0,1,517.51,130.19Z"/><path class="cls-3" d="M504.18,145.2a14.16,14.16,0,0,0-2.88-4.66c-.19-.21-.5.1-.31.31a13.8,13.8,0,0,1,1.65,2.19h0l-1.77,1.78V140.7a.22.22,0,0,0-.44,0v4.12l-1.77-1.77,0,0a14.85,14.85,0,0,1,1.65-2.18c.19-.21-.11-.52-.3-.31a14.48,14.48,0,0,0-2.86,4.58,5.75,5.75,0,0,0-.26,3.77,5.22,5.22,0,0,0,3.21,3c.26.11.37-.31.12-.42a4.75,4.75,0,0,1-3-2.92,4.5,4.5,0,0,1,0-2l3.25,3.25v1.87a.22.22,0,0,0,.44,0V149.8l3.25-3.25a4.77,4.77,0,0,1,0,1.92,4.64,4.64,0,0,1-3,3c-.26.11-.15.53.11.42a5.34,5.34,0,0,0,3.19-2.93A5.66,5.66,0,0,0,504.18,145.2Zm-6.88.87,0,0a10.57,10.57,0,0,1,.35-1,12.9,12.9,0,0,1,.77-1.59l2,2v3.74C499.37,148.15,498.34,147.11,497.3,146.07Zm6.66,0-3.11,3.12v-3.75l2-2a13.17,13.17,0,0,1,.74,1.51,8.68,8.68,0,0,1,.38,1.12Z"/><path class="cls-3" d="M511.82,165.38H489.69a2.45,2.45,0,0,1-2.45-2.44v-.59a2.45,2.45,0,0,1,2.45-2.44h22.13a2.44,2.44,0,0,1,2.44,2.44v.59A2.44,2.44,0,0,1,511.82,165.38ZM489.69,161a1.34,1.34,0,0,0-1.34,1.34v.59a1.34,1.34,0,0,0,1.34,1.34h22.13a1.34,1.34,0,0,0,1.34-1.34v-.59a1.34,1.34,0,0,0-1.34-1.34Z"/><path class="cls-3" d="M442.45,122.8H416.52a.38.38,0,0,1-.39-.39v-4.26a.39.39,0,0,1,.39-.39h25.93a.4.4,0,0,1,.4.39v4.26A.39.39,0,0,1,442.45,122.8ZM416.91,122h25.15v-3.46H416.91Z"/><path class="cls-3" d="M442.45,114.07H416.52a.39.39,0,0,1-.39-.39v-4.26a.38.38,0,0,1,.39-.39h25.93a.39.39,0,0,1,.4.39v4.26A.4.4,0,0,1,442.45,114.07Zm-25.54-.79h25.15v-3.46H416.91Z"/><path class="cls-2" d="M885.89,42.09h-60a1,1,0,0,0-1,1v122a1,1,0,0,0,1,1h60a1,1,0,0,0,.7-.27l0,0,0,0a1,1,0,0,0,.27-.7v-122A1,1,0,0,0,885.89,42.09Zm-39.72,122H826.91v-120h58v120Z"/><path class="cls-2" d="M821.67,70.73h-60c-.57,0-1,.74-1,1.63v92.57c0,.89.46,1.63,1,1.63h60a.81.81,0,0,0,.7-.43l0,0,0,0a2.11,2.11,0,0,0,.27-1.11V72.36C822.7,71.47,822.24,70.73,821.67,70.73ZM782,163.3H762.7V74h57.94v89.3Z"/><path class="cls-2" d="M936.87,1.73H890a1,1,0,0,0-1,1V165.29a1,1,0,0,0,1,1h46.87a.92.92,0,0,0,.69-.28l0,0,0,0a1,1,0,0,0,.28-.7V2.76A1,1,0,0,0,936.87,1.73ZM895.75,164.26H891V3.79h44.81V164.26Z"/><path class="cls-2" d="M1094.25,33.35h-34.88a1,1,0,0,0-1,1V165.16a1,1,0,0,0,1,1h34.88a1,1,0,0,0,.7-.27l0,0,0,0a1,1,0,0,0,.27-.7V34.38A1,1,0,0,0,1094.25,33.35ZM1060.4,88.16V35.41h32.82V164.13H1060.4v-76Z"/><path class="cls-2" d="M757.64,50H722.76a1,1,0,0,0-1,1v114.3a1,1,0,0,0,1,1h34.88a.92.92,0,0,0,.7-.28l0,0,0,0a1,1,0,0,0,.27-.7V51A1,1,0,0,0,757.64,50Zm-33.85,114.3V52.05h32.82V164.29Z"/><path class="cls-2" d="M1055.93,79.15H988.79a1.07,1.07,0,0,0-.19-.18l-36-23.46L941.5,48.29c-.68-.44-1.55.11-1.55,1.09V164.94a1.17,1.17,0,0,0,1,1.25h115a.86.86,0,0,0,.7-.33l0,0,0,0a1.33,1.33,0,0,0,.27-.85V80.4A1.17,1.17,0,0,0,1055.93,79.15ZM947.05,163.68h-5V51.47q17.22,11.24,34.46,22.45L987,80.77v82.91Zm71,0H989.11v-82h65.79v82Z"/><path class="cls-2" d="M768.9,135.39h44.9a1,1,0,0,0,0-2.06H768.9a1,1,0,0,0,0,2.06Z"/><path class="cls-2" d="M769.65,103.4h44.9a1,1,0,0,0,0-2.06h-44.9a1,1,0,0,0,0,2.06Z"/><path class="cls-2" d="M729.43,137.39h22a1,1,0,0,0,0-2.06h-22a1,1,0,0,0,0,2.06Z"/><path class="cls-2" d="M776.59,124.5V108.81a1,1,0,0,0-2.06,0V124.5a1,1,0,0,0,2.06,0Z"/><path class="cls-2" d="M792,124.5V108.81a1,1,0,0,0-2.06,0V124.5a1,1,0,0,0,2.06,0Z"/><path class="cls-2" d="M807.34,124.5V108.81a1,1,0,0,0-2.06,0V124.5a1,1,0,0,0,2.06,0Z"/><path class="cls-2" d="M732.86,157.93V142.24a1,1,0,0,0-2.06,0v15.69a1,1,0,0,0,2.06,0Z"/><path class="cls-2" d="M740.75,157.93V142.24a1,1,0,0,0-2.06,0v15.69a1,1,0,0,0,2.06,0Z"/><path class="cls-2" d="M748.64,157.93V142.24a1,1,0,0,0-2.06,0v15.69a1,1,0,0,0,2.06,0Z"/><path class="cls-2" d="M1021,70.86v-6a1,1,0,0,0-2.06,0v6a1,1,0,0,0,2.06,0Z"/><path class="cls-2" d="M1036.38,70.86v-6a1,1,0,0,0-2.06,0v6a1,1,0,0,0,2.06,0Z"/><path class="cls-2" d="M1051.76,70.86v-6a1,1,0,0,0-2.06,0v6a1,1,0,0,0,2.06,0Z"/><path class="cls-2" d="M1021,59.6V48a1,1,0,0,0-2.06,0V59.6a1,1,0,0,0,2.06,0Z"/><path class="cls-2" d="M1036.38,59.6V48a1,1,0,0,0-2.06,0V59.6a1,1,0,0,0,2.06,0Z"/><path class="cls-2" d="M1051.76,59.6V48a1,1,0,0,0-2.06,0V59.6a1,1,0,0,0,2.06,0Z"/><path class="cls-2" d="M840.78,75.16v-6a1,1,0,0,0-2.06,0v6a1,1,0,0,0,2.06,0Z"/><path class="cls-2" d="M856.15,75.16v-6a1,1,0,0,0-2.06,0v6a1,1,0,0,0,2.06,0Z"/><path class="cls-2" d="M871.53,75.16v-6a1,1,0,0,0-2.06,0v6a1,1,0,0,0,2.06,0Z"/><path class="cls-2" d="M840.78,63.91V52.27a1,1,0,0,0-2.06,0V63.91a1,1,0,0,0,2.06,0Z"/><path class="cls-2" d="M856.15,63.91V52.27a1,1,0,0,0-2.06,0V63.91a1,1,0,0,0,2.06,0Z"/><path class="cls-2" d="M871.53,63.91V52.27a1,1,0,0,0-2.06,0V63.91a1,1,0,0,0,2.06,0Z"/><path class="cls-2" d="M1015.85,122.17a1,1,0,0,0,.7-.27l0,0,0,0a1,1,0,0,0,.27-.7V108.88a1,1,0,0,0-1-1h-12.26a1,1,0,0,0-1,1v12.26a1,1,0,0,0,1,1Zm-1-2.06h-10.2v-10.2h10.2Z"/><path class="cls-2" d="M1041.31,122.17a1,1,0,0,0,.7-.27l0,0,0,0a1,1,0,0,0,.27-.7V108.88a1,1,0,0,0-1-1h-12.26a1,1,0,0,0-1,1v12.26a1,1,0,0,0,1,1Zm-1-2.06h-10.2v-10.2h10.2Z"/><path class="cls-2" d="M1016.33,129.71h-12.26a1,1,0,0,0-1,1V143a1,1,0,0,0,1,1h12.26a.92.92,0,0,0,.7-.28l0,0,0,0a1,1,0,0,0,.27-.7V130.74A1,1,0,0,0,1016.33,129.71Zm-1,12.26h-10.2v-10.2h10.2Z"/><path class="cls-2" d="M1042.82,130.74a1,1,0,0,0-1-1h-12.26a1,1,0,0,0-1,1V143a1,1,0,0,0,1,1h12.26a.94.94,0,0,0,.7-.28l0,0,0,0a1,1,0,0,0,.27-.7ZM1040.76,142h-10.2v-10.2h10.2Z"/><path class="cls-2" d="M1074.5,42h-8a1,1,0,0,0-1,1v8a1,1,0,0,0,1,1h8a1,1,0,0,0,.7-.27l0,0,0,0a.94.94,0,0,0,.28-.7v-8A1,1,0,0,0,1074.5,42Zm-1,8h-6v-6h6Z"/><path class="cls-2" d="M1087.15,42h-8a1,1,0,0,0-1,1v8a1,1,0,0,0,1,1h8a1,1,0,0,0,.7-.27l0,0,0,0a1,1,0,0,0,.27-.7v-8A1,1,0,0,0,1087.15,42Zm-1,8h-6v-6h6Z"/><path class="cls-2" d="M1074.5,54.66h-8a1,1,0,0,0-1,1v8a1,1,0,0,0,1,1h8a1,1,0,0,0,.7-.28l0,0s0,0,0,0a.92.92,0,0,0,.28-.69v-8A1,1,0,0,0,1074.5,54.66Zm-1,8h-6v-6h6Z"/><path class="cls-2" d="M1087.15,54.66h-8a1,1,0,0,0-1,1v8a1,1,0,0,0,1,1h8a.92.92,0,0,0,.7-.28l0,0,0,0a1,1,0,0,0,.27-.69v-8A1,1,0,0,0,1087.15,54.66Zm-1,8h-6v-6h6Z"/><path class="cls-2" d="M1074.5,66.94h-8a1,1,0,0,0-1,1v8a1,1,0,0,0,1,1h8a1,1,0,0,0,.7-.27l0,0s0,0,0,0a.92.92,0,0,0,.28-.7V68A1,1,0,0,0,1074.5,66.94Zm-1,8h-6V69h6Z"/><path class="cls-2" d="M1087.15,66.94h-8a1,1,0,0,0-1,1v8a1,1,0,0,0,1,1h8a1,1,0,0,0,.7-.27l0,0,0,0a1,1,0,0,0,.27-.7V68A1,1,0,0,0,1087.15,66.94Zm-1,8h-6V69h6Z"/><path class="cls-2" d="M1074.5,79.57h-8a1,1,0,0,0-1,1v8a1,1,0,0,0,1,1h8a1,1,0,0,0,.7-.28l0,0s0,0,0,0a1,1,0,0,0,.28-.7v-8A1,1,0,0,0,1074.5,79.57Zm-1,8h-6v-6h6Z"/><path class="cls-2" d="M1087.15,79.57h-8a1,1,0,0,0-1,1v8a1,1,0,0,0,1,1h8a.92.92,0,0,0,.7-.28l0,0,0,0a1,1,0,0,0,.27-.7v-8A1,1,0,0,0,1087.15,79.57Zm-1,8h-6v-6h6Z"/><path class="cls-2" d="M1074.5,90.92h-8a1,1,0,0,0-1,1v8a1,1,0,0,0,1,1h8a1,1,0,0,0,.7-.28l0,0,0,0a1,1,0,0,0,.28-.7V92A1,1,0,0,0,1074.5,90.92Zm-1,8h-6V93h6Z"/><path class="cls-2" d="M1087.15,90.92h-8a1,1,0,0,0-1,1v8a1,1,0,0,0,1,1h8a.92.92,0,0,0,.7-.28l0,0,0,0a1,1,0,0,0,.27-.7V92A1,1,0,0,0,1087.15,90.92Zm-1,8h-6V93h6Z"/><path class="cls-2" d="M1074.5,103.55h-8a1,1,0,0,0-1,1v8a1,1,0,0,0,1,1h8a1,1,0,0,0,.7-.27l0,0,0,0a.94.94,0,0,0,.28-.7v-8A1,1,0,0,0,1074.5,103.55Zm-1,8h-6v-6h6Z"/><path class="cls-2" d="M1087.15,103.55h-8a1,1,0,0,0-1,1v8a1,1,0,0,0,1,1h8a1,1,0,0,0,.7-.27l0,0,0,0a1,1,0,0,0,.27-.7v-8A1,1,0,0,0,1087.15,103.55Zm-1,8h-6v-6h6Z"/><path class="cls-2" d="M737,59.47h-8a1,1,0,0,0-1,1v8a1,1,0,0,0,1,1h8a1,1,0,0,0,.7-.28l0,0,0,0a1,1,0,0,0,.27-.7v-8A1,1,0,0,0,737,59.47Zm-1,8h-6v-6h6Z"/><path class="cls-2" d="M749.61,59.47h-8a1,1,0,0,0-1,1v8a1,1,0,0,0,1,1h8a1,1,0,0,0,.7-.28l0,0,0,0a.92.92,0,0,0,.28-.7v-8A1,1,0,0,0,749.61,59.47Zm-1,8h-6v-6h6Z"/><path class="cls-2" d="M737,72.1h-8a1,1,0,0,0-1,1v8a1,1,0,0,0,1,1h8a.92.92,0,0,0,.7-.28l0,0,0,0a1,1,0,0,0,.27-.7v-8A1,1,0,0,0,737,72.1Zm-1,8h-6v-6h6Z"/><path class="cls-2" d="M749.61,72.1h-8a1,1,0,0,0-1,1v8a1,1,0,0,0,1,1h8a1,1,0,0,0,.7-.28l0,0,0,0a1,1,0,0,0,.28-.7v-8A1,1,0,0,0,749.61,72.1Zm-1,8h-6v-6h6Z"/><path class="cls-2" d="M737,84.38h-8a1,1,0,0,0-1,1v8a1,1,0,0,0,1,1h8a.92.92,0,0,0,.7-.28l0,0,0,0a1,1,0,0,0,.27-.7v-8A1,1,0,0,0,737,84.38Zm-1,8h-6v-6h6Z"/><path class="cls-2" d="M749.61,84.38h-8a1,1,0,0,0-1,1v8a1,1,0,0,0,1,1h8a1,1,0,0,0,.7-.28l0,0,0,0a1,1,0,0,0,.28-.7v-8A1,1,0,0,0,749.61,84.38Zm-1,8h-6v-6h6Z"/><path class="cls-2" d="M737,97h-8a1,1,0,0,0-1,1v8a1,1,0,0,0,1,1h8a1,1,0,0,0,.7-.27l0,0,0,0a1,1,0,0,0,.27-.7v-8A1,1,0,0,0,737,97Zm-1,8h-6v-6h6Z"/><path class="cls-2" d="M749.61,97h-8a1,1,0,0,0-1,1v8a1,1,0,0,0,1,1h8a1,1,0,0,0,.7-.27l0,0,0,0a.92.92,0,0,0,.28-.7v-8A1,1,0,0,0,749.61,97Zm-1,8h-6v-6h6Z"/><path class="cls-2" d="M737,108.36h-8a1,1,0,0,0-1,1v8a1,1,0,0,0,1,1h8a1,1,0,0,0,.7-.27l0,0,0,0a1,1,0,0,0,.27-.7v-8A1,1,0,0,0,737,108.36Zm-1,8h-6v-6h6Z"/><path class="cls-2" d="M749.61,108.36h-8a1,1,0,0,0-1,1v8a1,1,0,0,0,1,1h8a1,1,0,0,0,.7-.27l0,0,0,0a1,1,0,0,0,.28-.7v-8A1,1,0,0,0,749.61,108.36Zm-1,8h-6v-6h6Z"/><path class="cls-2" d="M737,121h-8a1,1,0,0,0-1,1v8a1,1,0,0,0,1,1h8a1,1,0,0,0,.7-.28l0,0,0,0a1,1,0,0,0,.27-.7v-8A1,1,0,0,0,737,121Zm-1,8h-6v-6h6Z"/><path class="cls-2" d="M749.61,121h-8a1,1,0,0,0-1,1v8a1,1,0,0,0,1,1h8a1,1,0,0,0,.7-.28l0,0,0,0a.92.92,0,0,0,.28-.7v-8A1,1,0,0,0,749.61,121Zm-1,8h-6v-6h6Z"/><path class="cls-2" d="M946.63,113.64h34.12a1,1,0,0,0,0-2.06H946.63a1,1,0,0,0,0,2.06Z"/><path class="cls-2" d="M946.63,161.7h34.12a1,1,0,0,0,0-2.07H946.63a1,1,0,0,0,0,2.07Z"/><path class="cls-2" d="M1065.65,119.77h21.29a1,1,0,0,0,0-2.06h-21.29a1,1,0,0,0,0,2.06Z"/><path class="cls-2" d="M908.69,150a27.79,27.79,0,0,0-5.8-9.43.62.62,0,0,0-1,0,.74.74,0,0,0-1,0,.61.61,0,0,0-1,0,28.82,28.82,0,0,0-5.81,9.43,11.42,11.42,0,0,0-.39,7.43c1,3,3.71,4.86,6.5,6a.53.53,0,0,0,.71-.21.67.67,0,0,0,.32.17.63.63,0,0,0-.59.66c0,2.08.09,4.16.14,6.24a.69.69,0,0,0,1.37,0c0-2.08-.09-4.16-.13-6.24a.65.65,0,0,0-.54-.65.76.76,0,0,0,.41-.18.52.52,0,0,0,.7.21c2.8-1.17,5.25-2.91,6.42-5.79m-1.24-6.11c-1.9,1.89-3.79,3.79-5.69,5.69v-6.69l3.67-3.68c.45.81.87,1.63,1.23,2.46A16.21,16.21,0,0,1,907.76,151.52Zm-2.74-5.9-2.95,2.95v-6.9A28.58,28.58,0,0,1,905,145.62Zm-4.32-3.93v6.87l-3-2.95A28.76,28.76,0,0,1,900.7,141.69ZM897,146.83l3.68,3.67v6.7L895,151.52a17.11,17.11,0,0,1,.79-2.22A24.5,24.5,0,0,1,897,146.83Zm-2.21,9.49a8.19,8.19,0,0,1-.13-3.2l6,6v3l-.14-.07C897.91,161,895.56,159.21,894.81,156.32Zm13.21-.24c-.58,3-3.14,4.9-5.8,6a.53.53,0,0,0-.15.08v-3l6-6A9.12,9.12,0,0,1,908,156.08Z"/><path class="cls-2" d="M1089.78,142.1V129.76c0-1.89.69-5.59-1.5-6.51a7.9,7.9,0,0,0-2.87-.19h-17.67c-1.1,0-2.34-.16-3.19.7a3.41,3.41,0,0,0-.7,2.69v31.42c0,3.14,3.08,2.72,5.28,2.72h18.27a.79.79,0,0,0,.28,0c2.81-.38,2.1-4.28,2.1-6.28Zm-22.46,16.43c-.45,0-1.41.21-1.41-.45V126.9c0-.33-.22-1.71.31-1.78a19.42,19.42,0,0,1,2.53,0h17.56c.41,0,1.41-.2,1.41.42v31.09c0,.57.28,1.66-.43,1.9Z"/><path class="cls-2" d="M948.65,116.59v36.82h0a1,1,0,0,0,2.06,0V116.6h0a1,1,0,0,0-2.06,0Z"/><path class="cls-2" d="M955.56,116.59v36.82h0a1,1,0,0,0,2.06,0V116.6h0a1,1,0,0,0-2.06,0Z"/><path class="cls-2" d="M962.46,116.59v36.82h0a1,1,0,0,0,2.06,0V116.6h0a1,1,0,0,0-2.06,0Z"/><path class="cls-2" d="M969.37,116.59v36.82h0a1,1,0,0,0,2.06,0V116.6h0a1,1,0,0,0-2.06,0Z"/><path class="cls-2" d="M976.28,116.59v36.82h0a1,1,0,0,0,2.06,0V116.6h0a1,1,0,0,0-2.06,0Z"/><path class="cls-2" d="M976.9,96.25l-8.31-3.79-14.5-6.62-4.82-2.2c-1.35-.61-3.2-1.13-3.63.92a1.26,1.26,0,0,0,0,.28v19.77c0,2.76,2.4,2.41,4.41,2.41h26.47c1.82,0,1.94-1.64,1.94-3V98.33A2.16,2.16,0,0,0,976.9,96.25Zm-.55,2ZM972.57,105H947.66V85.16h0l1.22.55,4.16,1.9L964.93,93l9.84,4.49,1.58.72V105h-3.78Z"/><path class="cls-2" d="M769,148.19H813.8a.92.92,0,0,0,.7-.28l0,0,0,0a1,1,0,0,0,.27-.7v-6.6a1,1,0,0,0-1-1H769a1,1,0,0,0-1,1v6.6A1,1,0,0,0,769,148.19Zm40.85-6.6h2.95v4.54H770v-4.54Z"/><path class="cls-2" d="M815.12,151.58a1,1,0,0,0-1-1H769.26a1,1,0,0,0-1,1v6.6a1,1,0,0,0,1,1h44.83a.92.92,0,0,0,.69-.28l0,0,0,0a.92.92,0,0,0,.28-.69Zm-41.88,5.57h-3v-4.54h42.77v4.54Z"/><path class="cls-2" d="M769.41,86.1h44.83a1,1,0,0,0,.69-.27l0,0,0,0a.92.92,0,0,0,.28-.7v-6.6a1,1,0,0,0-1-1H769.41a1,1,0,0,0-1,1v6.6A1,1,0,0,0,769.41,86.1Zm40.84-6.6h3V84H770.44V79.5Z"/><path class="cls-2" d="M815.55,89.49a1,1,0,0,0-1-1H769.69a1,1,0,0,0-1,1v6.6a1,1,0,0,0,1,1h44.83a1,1,0,0,0,.7-.28l0,0,0,0a1,1,0,0,0,.28-.7Zm-41.88,5.57h-2.95V90.52h42.77v4.54Z"/><path class="cls-2" d="M848.91,132.59a1,1,0,0,0,.7-.28l0,0,0,0a1,1,0,0,0,.28-.7V119.3a1,1,0,0,0-1-1H836.65a1,1,0,0,0-1,1v12.26a1,1,0,0,0,1,1Zm-1-2.06h-10.2v-10.2h10.2Z"/><path class="cls-2" d="M874.37,132.59a1,1,0,0,0,.7-.28l0,0,0,0a1,1,0,0,0,.28-.7V119.3a1,1,0,0,0-1-1H862.11a1,1,0,0,0-1,1v12.26a1,1,0,0,0,1,1Zm-1-2.06h-10.2v-10.2h10.2Z"/><path class="cls-2" d="M849.39,140.12H837.13a1,1,0,0,0-1,1v12.26a1,1,0,0,0,1,1h12.26a1,1,0,0,0,.7-.27l0,0,0,0a.92.92,0,0,0,.28-.7V141.15A1,1,0,0,0,849.39,140.12Zm-1,12.26h-10.2v-10.2h10.2Z"/><path class="cls-2" d="M874.85,140.12H862.59a1,1,0,0,0-1,1v12.26a1,1,0,0,0,1,1h12.26a1,1,0,0,0,.7-.27l0,0,0,0a.92.92,0,0,0,.28-.7V141.15A1,1,0,0,0,874.85,140.12Zm-1,12.26h-10.2v-10.2h10.2Z"/><path class="cls-2" d="M879.37,82.21H834.54a1,1,0,0,0-1,1v6.6a1,1,0,0,0,1,1h44.83a.92.92,0,0,0,.7-.28l0,0,0,0a1,1,0,0,0,.27-.7v-6.6A1,1,0,0,0,879.37,82.21Zm-1,2.06v4.54H835.57V84.27"/><path class="cls-2" d="M879.37,95.53H834.54a1,1,0,0,0-1,1V108a1,1,0,0,0,1,1h44.83a1,1,0,0,0,.7-.28l0,0,0,0a1,1,0,0,0,.27-.7V96.56A1,1,0,0,0,879.37,95.53ZM838.52,107h-2.95V97.59h42.77V107Z"/><path class="cls-2" d="M903.39,7.84h-7.57a1,1,0,0,0-1,1V56.64a1,1,0,0,0,1,1h7.57a.92.92,0,0,0,.7-.28l0,0,0,0a1,1,0,0,0,.27-.69V8.87A1,1,0,0,0,903.39,7.84ZM896.85,9.9h5.51V55.6h-5.51V9.9Z"/><path class="cls-2" d="M917.08,7.84h-7.57a1,1,0,0,0-1,1V56.64a1,1,0,0,0,1,1h7.57a.92.92,0,0,0,.69-.28l0,0,0,0a.92.92,0,0,0,.28-.69V8.87A1,1,0,0,0,917.08,7.84ZM910.54,9.9h5.51V55.6h-5.51V9.9Z"/><path class="cls-2" d="M930.76,7.84h-7.57a1,1,0,0,0-1,1V56.64a1,1,0,0,0,1,1h7.57a1,1,0,0,0,.7-.28l0,0s0,0,0,0a.92.92,0,0,0,.28-.69V8.87A1,1,0,0,0,930.76,7.84ZM924.22,9.9h5.51V55.6h-5.51V9.9Z"/><path class="cls-2" d="M903.39,63h-7.57a1,1,0,0,0-1,1V74.68a1,1,0,0,0,1,1h7.57a.92.92,0,0,0,.7-.28l0,0,0,0a1,1,0,0,0,.27-.7V64A1,1,0,0,0,903.39,63Zm-1,10.64h-5.51V65.07h5.51Z"/><path class="cls-2" d="M917.08,63h-7.57a1,1,0,0,0-1,1V74.68a1,1,0,0,0,1,1h7.57a.92.92,0,0,0,.69-.28l0,0,0,0a1,1,0,0,0,.28-.7V64A1,1,0,0,0,917.08,63Zm-1,10.64h-5.51V65.07h5.51Z"/><path class="cls-2" d="M930.76,63h-7.57a1,1,0,0,0-1,1V74.68a1,1,0,0,0,1,1h7.57a1,1,0,0,0,.7-.28l0,0s0,0,0,0a1,1,0,0,0,.28-.7V64A1,1,0,0,0,930.76,63Zm-1,10.64h-5.51V65.07h5.51Z"/><path class="cls-2" d="M903.39,79.71h-7.57a1,1,0,0,0-1,1V91.37a1,1,0,0,0,1,1h7.57a1,1,0,0,0,.7-.27l0,0,0,0a1,1,0,0,0,.27-.7V80.74A1,1,0,0,0,903.39,79.71Zm-1,10.63h-5.51V81.77h5.51Z"/><path class="cls-2" d="M917.08,79.71h-7.57a1,1,0,0,0-1,1V91.37a1,1,0,0,0,1,1h7.57a1,1,0,0,0,.69-.27l0,0,0,0a.92.92,0,0,0,.28-.7V80.74A1,1,0,0,0,917.08,79.71Zm-1,10.63h-5.51V81.77h5.51Z"/><path class="cls-2" d="M930.76,79.71h-7.57a1,1,0,0,0-1,1V91.37a1,1,0,0,0,1,1h7.57a1,1,0,0,0,.7-.27l0,0s0,0,0,0a.92.92,0,0,0,.28-.7V80.74A1,1,0,0,0,930.76,79.71Zm-1,10.63h-5.51V81.77h5.51Z"/><path class="cls-2" d="M903.39,95.71h-7.57a1,1,0,0,0-1,1v10.64a1,1,0,0,0,1,1h7.57a.92.92,0,0,0,.7-.28l0,0,0,0a1,1,0,0,0,.27-.69V96.74A1,1,0,0,0,903.39,95.71Zm-1,10.64h-5.51V97.77h5.51Z"/><path class="cls-2" d="M917.08,95.71h-7.57a1,1,0,0,0-1,1v10.64a1,1,0,0,0,1,1h7.57a.92.92,0,0,0,.69-.28l0,0,0,0a.92.92,0,0,0,.28-.69V96.74A1,1,0,0,0,917.08,95.71Zm-1,10.64h-5.51V97.77h5.51Z"/><path class="cls-2" d="M930.76,95.71h-7.57a1,1,0,0,0-1,1v10.64a1,1,0,0,0,1,1h7.57a1,1,0,0,0,.7-.28l0,0s0,0,0,0a.92.92,0,0,0,.28-.69V96.74A1,1,0,0,0,930.76,95.71Zm-1,10.64h-5.51V97.77h5.51Z"/><path class="cls-2" d="M895.64,115.08h34.94a1,1,0,0,0,0-2.06H895.64a1,1,0,0,0,0,2.06Z"/><path class="cls-2" d="M895.64,122.55h34.94a1,1,0,0,0,0-2.06H895.64a1,1,0,0,0,0,2.06Z"/><path class="cls-2" d="M895.64,130h34.94a1,1,0,0,0,0-2.06H895.64a1,1,0,0,0,0,2.06Z"/><path class="cls-2" d="M895.64,137.48h34.94a1,1,0,0,0,0-2.06H895.64a1,1,0,0,0,0,2.06Z"/><path class="cls-2" d="M913.7,144.5h17a1,1,0,0,0,0-2.06h-17a1,1,0,0,0,0,2.06Z"/><path class="cls-2" d="M913.7,155h17a1,1,0,0,0,0-2.06h-17a1,1,0,0,0,0,2.06Z"/><path class="cls-2" d="M996.51,161.35h39.41a1,1,0,0,0,0-2.06H996.51a1,1,0,0,0,0,2.06Z"/><path class="cls-2" d="M1052.59,152.44a29.65,29.65,0,0,0-6.19-10.09.62.62,0,0,0-1,.09.74.74,0,0,0-1.12,0,.63.63,0,0,0-1-.08,30.86,30.86,0,0,0-6.1,9.85,12.24,12.24,0,0,0-.5,7.94c1,3.23,3.92,5.2,6.9,6.46a.54.54,0,0,0,.73-.26.74.74,0,0,0,1.06,0,.54.54,0,0,0,.73.26c3-1.26,5.61-3.12,6.82-6.22C1053.9,157.84,1053.45,154.94,1052.59,152.44Zm-.94,1.57-6.13,6.13v-7.23l4-3.95c.47.84.91,1.71,1.29,2.58A17.23,17.23,0,0,1,1051.65,154Zm-2.9-6.27-3.23,3.23v-7.54A29.19,29.19,0,0,1,1048.75,147.74Zm-4.6-4.3V151l-3.24-3.24A29.87,29.87,0,0,1,1044.15,143.44Zm-4,5.49c1.32,1.33,2.65,2.65,4,4v7.23L1038,154a18.93,18.93,0,0,1,.74-2.16A26.87,26.87,0,0,1,1040.18,148.93Zm-2.38,10.14a9,9,0,0,1-.11-3.46l6.46,6.46v3.33a.69.69,0,0,0-.2-.13C1041.11,164.08,1038.59,162.16,1037.8,159.07Zm14.13-.24c-.62,3.21-3.34,5.24-6.2,6.44a.77.77,0,0,0-.21.14v-3.33q3.24-3.22,6.46-6.46A9.88,9.88,0,0,1,1051.93,158.83Z"/><path class="cls-2" d="M1044.08,167.29l.15,6.63a.69.69,0,0,0,1.37,0l-.14-6.63A.69.69,0,0,0,1044.08,167.29Z"/><path class="cls-3" d="M1138.15,165.39h-34.81a.55.55,0,0,1-.55-.56V96.91a.55.55,0,0,1,.55-.55h34.81a.55.55,0,0,1,.55.55v67.92A.56.56,0,0,1,1138.15,165.39Zm-34.26-1.11h33.7V97.46h-33.7Z"/><path class="cls-3" d="M1133.66,104.4h-25.93a.4.4,0,0,1,0-.79h25.93a.4.4,0,1,1,0,.79Z"/><path class="cls-3" d="M1111,160.05a.39.39,0,0,1-.39-.39V139.75a.4.4,0,0,1,.79,0v19.91A.39.39,0,0,1,1111,160.05Z"/><path class="cls-3" d="M1115.89,160.05a.39.39,0,0,1-.39-.39V139.75a.4.4,0,0,1,.79,0v19.91A.39.39,0,0,1,1115.89,160.05Z"/><path class="cls-3" d="M1120.79,160.05a.39.39,0,0,1-.39-.39V139.75a.4.4,0,0,1,.79,0v19.91A.39.39,0,0,1,1120.79,160.05Z"/><path class="cls-3" d="M1125.69,160.05a.39.39,0,0,1-.39-.39V139.75a.4.4,0,0,1,.79,0v19.91A.39.39,0,0,1,1125.69,160.05Z"/><path class="cls-3" d="M1130.59,160.05a.38.38,0,0,1-.39-.39V139.75a.38.38,0,0,1,.39-.39.39.39,0,0,1,.4.39v19.91A.39.39,0,0,1,1130.59,160.05Z"/><path class="cls-3" d="M1133.66,136.14h-25.93a.39.39,0,0,1,0-.78h25.93a.39.39,0,1,1,0,.78Z"/><path class="cls-3" d="M1133.76,122.88h-25.93a.39.39,0,0,1-.4-.39v-4.25a.4.4,0,0,1,.4-.4h25.93a.39.39,0,0,1,.39.4v4.25A.38.38,0,0,1,1133.76,122.88Zm-25.54-.78h25.15v-3.47h-25.15Z"/><path class="cls-3" d="M1133.76,114.15h-25.93a.39.39,0,0,1-.4-.39V109.5a.4.4,0,0,1,.4-.39h25.93a.39.39,0,0,1,.39.39v4.26A.38.38,0,0,1,1133.76,114.15Zm-25.54-.79h25.15V109.9h-25.15Z"/><path class="cls-2" d="M1174.89,133.77a44.43,44.43,0,0,0-9.08-14.68c-.6-.66-1.57.32-1,1A45.41,45.41,0,0,1,1170,127l-.06,0-5.59,5.59v-13a.69.69,0,0,0-1.38,0v13l-5.57-5.58-.07-.06a46.21,46.21,0,0,1,5.21-6.88c.6-.65-.37-1.63-1-1a45.69,45.69,0,0,0-9,14.43c-1.42,3.76-2.07,8-.82,11.88,1.52,4.72,5.75,7.65,10.12,9.47.82.34,1.17-1,.37-1.32-4.23-1.76-8.1-4.63-9.37-9.22a13.86,13.86,0,0,1-.14-6.31L1163,148.27v5.89a.69.69,0,0,0,1.38,0v-5.87L1174.65,138a15.08,15.08,0,0,1-.08,6.06c-1.1,4.71-5.19,7.69-9.43,9.46-.8.33-.45,1.66.37,1.32,4.37-1.82,8.34-4.64,10-9.23C1177,141.81,1176.23,137.5,1174.89,133.77Zm-21.68,2.75-.09-.07a29.35,29.35,0,0,1,1.1-3.28,37.84,37.84,0,0,1,2.43-5l6.36,6.36v11.81Zm21,0-9.82,9.82v-11.8q3.18-3.19,6.37-6.37a42.88,42.88,0,0,1,2.35,4.76,27,27,0,0,1,1.19,3.52Z"/><path class="cls-2" d="M1162.92,156.24l.21,9.95a.69.69,0,0,0,1.38,0q-.12-5-.22-9.95A.69.69,0,0,0,1162.92,156.24Z"/><path class="cls-2" d="M1860.66,133.72a44.53,44.53,0,0,0-9.08-14.68c-.6-.65-1.57.32-1,1a45.41,45.41,0,0,1,5.2,6.89l-.06,0-5.59,5.59v-13a.69.69,0,0,0-1.38,0v13L1843.2,127l-.06-.06a45.54,45.54,0,0,1,5.21-6.88c.6-.66-.37-1.63-1-1a45.67,45.67,0,0,0-9,14.44c-1.42,3.76-2.07,8-.82,11.88,1.52,4.72,5.74,7.65,10.12,9.47.82.34,1.17-1,.37-1.32-4.23-1.77-8.1-4.63-9.38-9.22a14.15,14.15,0,0,1-.14-6.31l10.25,10.25v5.89a.69.69,0,0,0,1.38,0v-5.87L1860.41,138a14.9,14.9,0,0,1-.07,6.06c-1.1,4.7-5.19,7.69-9.43,9.46-.81.33-.45,1.66.36,1.32,4.38-1.82,8.35-4.64,10-9.23C1862.72,141.77,1862,137.46,1860.66,133.72ZM1839,136.48l-.09-.07a30.74,30.74,0,0,1,1.09-3.28,38.68,38.68,0,0,1,2.44-5l6.36,6.37v11.81Zm21,0-9.82,9.82V134.49l6.36-6.36a41.19,41.19,0,0,1,2.35,4.76,26,26,0,0,1,1.2,3.52Z"/><path class="cls-2" d="M1848.68,156.2c.08,3.31.15,6.63.22,9.94a.69.69,0,0,0,1.37,0l-.21-9.94A.69.69,0,0,0,1848.68,156.2Z"/><path class="cls-2" d="M1338.71,72.36h-60c-.56,0-1,.35-1,.77v92.23c0,.42.47.78,1,.78h60a1.14,1.14,0,0,0,.7-.21l0,0,0,0a.66.66,0,0,0,.27-.53V73.13C1339.74,72.71,1339.27,72.36,1338.71,72.36ZM1299,164.58h-19.26V73.91h58v90.67Z"/><path class="cls-2" d="M1389.69,27.08h-46.87a1,1,0,0,0-1,.87V165.39a1,1,0,0,0,1,.87h46.87a1,1,0,0,0,.69-.23l0,0,0,0a.73.73,0,0,0,.28-.59V28A1,1,0,0,0,1389.69,27.08Zm-41.12,137.44h-4.72V28.82h44.81v135.7Z"/><path class="cls-2" d="M1547.07,33.29h-34.88a1,1,0,0,0-1,1V165.11a1,1,0,0,0,1,1h34.88a.92.92,0,0,0,.7-.28l0,0,0,0a1,1,0,0,0,.27-.7V34.32A1,1,0,0,0,1547.07,33.29Zm-33.85,54.82V35.35H1546V164.08h-32.82v-76Z"/><path class="cls-2" d="M1224.46,49.93h-34.88a1,1,0,0,0-1,1v114.3a1,1,0,0,0,1,1h34.88a1,1,0,0,0,.7-.27l0,0,0,0a1,1,0,0,0,.27-.7V51A1,1,0,0,0,1224.46,49.93Zm-33.85,114.3V52h32.82V164.23Z"/><path class="cls-2" d="M1508.75,94.75h-67.14a1.33,1.33,0,0,0-.19-.14l-36-19.24-11.08-5.92a1,1,0,0,0-1.55.89v94.77a1,1,0,0,0,1,1h115a.92.92,0,0,0,.7-.28l0,0,0,0a1,1,0,0,0,.27-.7V95.78A1,1,0,0,0,1508.75,94.75Zm-108.88,69.33h-5v-92l34.46,18.41,10.5,5.61v68Zm71,0h-28.89V96.81h65.79v67.27Z"/><path class="cls-2" d="M1196.25,137.33h22a1,1,0,0,0,0-2.06h-22a1,1,0,0,0,0,2.06Z"/><path class="cls-2" d="M1199.68,157.87V142.18a1,1,0,0,0-2.06,0v15.69a1,1,0,0,0,2.06,0Z"/><path class="cls-2" d="M1207.57,157.87V142.18a1,1,0,0,0-2.06,0v15.69a1,1,0,0,0,2.06,0Z"/><path class="cls-2" d="M1215.46,157.87V142.18a1,1,0,0,0-2.06,0v15.69a1,1,0,0,0,2.06,0Z"/><path class="cls-2" d="M1473.83,90.8v-6a1,1,0,0,0-2.06,0v6a1,1,0,0,0,2.06,0Z"/><path class="cls-2" d="M1489.2,90.8v-6a1,1,0,0,0-2.06,0v6a1,1,0,0,0,2.06,0Z"/><path class="cls-2" d="M1504.58,90.8v-6a1,1,0,0,0-2.06,0v6a1,1,0,0,0,2.06,0Z"/><path class="cls-2" d="M1473.83,79.55V67.91a1,1,0,0,0-2.06,0V79.55a1,1,0,0,0,2.06,0Z"/><path class="cls-2" d="M1489.2,79.55V67.91a1,1,0,0,0-2.06,0V79.55a1,1,0,0,0,2.06,0Z"/><path class="cls-2" d="M1504.58,79.55V67.91a1,1,0,0,0-2.06,0V79.55a1,1,0,0,0,2.06,0Z"/><path class="cls-2" d="M1468.67,122.12a.92.92,0,0,0,.7-.28l0,0,0,0a1,1,0,0,0,.27-.7V108.83a1,1,0,0,0-1-1h-12.26a1,1,0,0,0-1,1v12.26a1,1,0,0,0,1,1Zm-1-2.06h-10.2v-10.2h10.2Z"/><path class="cls-2" d="M1494.13,122.12a1,1,0,0,0,.7-.28l0,0,0,0a1,1,0,0,0,.27-.7V108.83a1,1,0,0,0-1-1h-12.26a1,1,0,0,0-1,1v12.26a1,1,0,0,0,1,1Zm-1-2.06h-10.2v-10.2h10.2Z"/><path class="cls-2" d="M1469.15,129.65h-12.26a1,1,0,0,0-1,1v12.26a1,1,0,0,0,1,1h12.26a1,1,0,0,0,.7-.27l0,0,0,0a1,1,0,0,0,.27-.7V130.68A1,1,0,0,0,1469.15,129.65Zm-1,12.26h-10.2v-10.2h10.2Z"/><path class="cls-2" d="M1495.64,130.68a1,1,0,0,0-1-1h-12.26a1,1,0,0,0-1,1v12.26a1,1,0,0,0,1,1h12.26a1,1,0,0,0,.7-.27l0,0,0,0a1,1,0,0,0,.27-.7Zm-2.06,11.23h-10.2v-10.2h10.2Z"/><path class="cls-2" d="M1527.32,42h-8a1,1,0,0,0-1,1v8a1,1,0,0,0,1,1h8a1,1,0,0,0,.7-.28l0,0,0,0a.92.92,0,0,0,.28-.69V43A1,1,0,0,0,1527.32,42Zm-1,8h-6V44h6Z"/><path class="cls-2" d="M1540,42h-8a1,1,0,0,0-1,1v8a1,1,0,0,0,1,1h8a.92.92,0,0,0,.7-.28l0,0,0,0A1,1,0,0,0,1541,51V43A1,1,0,0,0,1540,42Zm-1,8h-6V44h6Z"/><path class="cls-2" d="M1527.32,54.6h-8a1,1,0,0,0-1,1v8a1,1,0,0,0,1,1h8a1,1,0,0,0,.7-.28l0,0s0,0,0,0a1,1,0,0,0,.28-.7v-8A1,1,0,0,0,1527.32,54.6Zm-1,8h-6v-6h6Z"/><path class="cls-2" d="M1540,54.6h-8a1,1,0,0,0-1,1v8a1,1,0,0,0,1,1h8a.92.92,0,0,0,.7-.28l0,0,0,0a1,1,0,0,0,.27-.7v-8A1,1,0,0,0,1540,54.6Zm-1,8h-6v-6h6Z"/><path class="cls-2" d="M1527.32,66.88h-8a1,1,0,0,0-1,1v8a1,1,0,0,0,1,1h8a1,1,0,0,0,.7-.28l0,0s0,0,0,0a1,1,0,0,0,.28-.7v-8A1,1,0,0,0,1527.32,66.88Zm-1,8h-6v-6h6Z"/><path class="cls-2" d="M1540,66.88h-8a1,1,0,0,0-1,1v8a1,1,0,0,0,1,1h8a.92.92,0,0,0,.7-.28l0,0,0,0a1,1,0,0,0,.27-.7v-8A1,1,0,0,0,1540,66.88Zm-1,8h-6v-6h6Z"/><path class="cls-2" d="M1527.32,79.52h-8a1,1,0,0,0-1,1v8a1,1,0,0,0,1,1h8a1,1,0,0,0,.7-.27l0,0s0,0,0,0a.92.92,0,0,0,.28-.7v-8A1,1,0,0,0,1527.32,79.52Zm-1,8h-6v-6h6Z"/><path class="cls-2" d="M1540,79.52h-8a1,1,0,0,0-1,1v8a1,1,0,0,0,1,1h8a1,1,0,0,0,.7-.27l0,0,0,0a1,1,0,0,0,.27-.7v-8A1,1,0,0,0,1540,79.52Zm-1,8h-6v-6h6Z"/><path class="cls-2" d="M1527.32,90.86h-8a1,1,0,0,0-1,1v8a1,1,0,0,0,1,1h8a1,1,0,0,0,.7-.27l0,0,0,0a.94.94,0,0,0,.28-.7v-8A1,1,0,0,0,1527.32,90.86Zm-1,8h-6v-6h6Z"/><path class="cls-2" d="M1540,90.86h-8a1,1,0,0,0-1,1v8a1,1,0,0,0,1,1h8a1,1,0,0,0,.7-.27l0,0,0,0a1,1,0,0,0,.27-.7v-8A1,1,0,0,0,1540,90.86Zm-1,8h-6v-6h6Z"/><path class="cls-2" d="M1527.32,103.5h-8a1,1,0,0,0-1,1v8a1,1,0,0,0,1,1h8a1,1,0,0,0,.7-.28l0,0s0,0,0,0a.92.92,0,0,0,.28-.69v-8A1,1,0,0,0,1527.32,103.5Zm-1,8h-6v-6h6Z"/><path class="cls-2" d="M1540,103.5h-8a1,1,0,0,0-1,1v8a1,1,0,0,0,1,1h8a.92.92,0,0,0,.7-.28l0,0,0,0a1,1,0,0,0,.27-.69v-8A1,1,0,0,0,1540,103.5Zm-1,8h-6v-6h6Z"/><path class="cls-2" d="M1203.77,59.41h-8a1,1,0,0,0-1,1v8a1,1,0,0,0,1,1h8a.92.92,0,0,0,.7-.28l0,0,0,0a1,1,0,0,0,.27-.7v-8A1,1,0,0,0,1203.77,59.41Zm-1,8h-6v-6h6Z"/><path class="cls-2" d="M1216.43,59.41h-8a1,1,0,0,0-1,1v8a1,1,0,0,0,1,1h8a1,1,0,0,0,.7-.28l0,0,0,0a1,1,0,0,0,.28-.7v-8A1,1,0,0,0,1216.43,59.41Zm-1,8h-6v-6h6Z"/><path class="cls-2" d="M1203.77,72.05h-8a1,1,0,0,0-1,1v8a1,1,0,0,0,1,1h8a1,1,0,0,0,.7-.27l0,0,0,0a1,1,0,0,0,.27-.7v-8A1,1,0,0,0,1203.77,72.05Zm-1,8h-6v-6h6Z"/><path class="cls-2" d="M1216.43,72.05h-8a1,1,0,0,0-1,1v8a1,1,0,0,0,1,1h8a1,1,0,0,0,.7-.27l0,0,0,0a.92.92,0,0,0,.28-.7v-8A1,1,0,0,0,1216.43,72.05Zm-1,8h-6v-6h6Z"/><path class="cls-2" d="M1203.77,84.32h-8a1,1,0,0,0-1,1v8a1,1,0,0,0,1,1h8a1,1,0,0,0,.7-.27l0,0,0,0a1,1,0,0,0,.27-.7v-8A1,1,0,0,0,1203.77,84.32Zm-1,8h-6v-6h6Z"/><path class="cls-2" d="M1216.43,84.32h-8a1,1,0,0,0-1,1v8a1,1,0,0,0,1,1h8a1,1,0,0,0,.7-.27l0,0,0,0a.92.92,0,0,0,.28-.7v-8A1,1,0,0,0,1216.43,84.32Zm-1,8h-6v-6h6Z"/><path class="cls-2" d="M1203.77,97h-8a1,1,0,0,0-1,1v8a1,1,0,0,0,1,1h8a.92.92,0,0,0,.7-.28l0,0,0,0a1,1,0,0,0,.27-.69V98A1,1,0,0,0,1203.77,97Zm-1,8h-6V99h6Z"/><path class="cls-2" d="M1216.43,97h-8a1,1,0,0,0-1,1v8a1,1,0,0,0,1,1h8a1,1,0,0,0,.7-.28l0,0,0,0a.92.92,0,0,0,.28-.69V98A1,1,0,0,0,1216.43,97Zm-1,8h-6V99h6Z"/><path class="cls-2" d="M1203.77,108.31h-8a1,1,0,0,0-1,1v8a1,1,0,0,0,1,1h8a1,1,0,0,0,.7-.28l0,0,0,0a1,1,0,0,0,.27-.7v-8A1,1,0,0,0,1203.77,108.31Zm-1,8h-6v-6h6Z"/><path class="cls-2" d="M1216.43,108.31h-8a1,1,0,0,0-1,1v8a1,1,0,0,0,1,1h8a1,1,0,0,0,.7-.28l0,0,0,0a.92.92,0,0,0,.28-.7v-8A1,1,0,0,0,1216.43,108.31Zm-1,8h-6v-6h6Z"/><path class="cls-2" d="M1203.77,120.94h-8a1,1,0,0,0-1,1v8a1,1,0,0,0,1,1h8a.92.92,0,0,0,.7-.28l0,0,0,0a1,1,0,0,0,.27-.7v-8A1,1,0,0,0,1203.77,120.94Zm-1,8h-6v-6h6Z"/><path class="cls-2" d="M1216.43,120.94h-8a1,1,0,0,0-1,1v8a1,1,0,0,0,1,1h8a1,1,0,0,0,.7-.28s0,0,0,0l0,0a1,1,0,0,0,.28-.7v-8A1,1,0,0,0,1216.43,120.94Zm-1,8h-6v-6h6Z"/><path class="cls-2" d="M1399.45,113.59h34.12a1,1,0,0,0,0-2.07h-34.12a1,1,0,0,0,0,2.07Z"/><path class="cls-2" d="M1399.45,158.63h34.12a1,1,0,0,0,0-2.06h-34.12a1,1,0,0,0,0,2.06Z"/><path class="cls-2" d="M1518.47,119.72h21.29a1,1,0,0,0,0-2.07h-21.29a1,1,0,0,0,0,2.07Z"/><path class="cls-2" d="M1361.51,149.9a28,28,0,0,0-5.8-9.43.63.63,0,0,0-1,.05.73.73,0,0,0-1,0,.63.63,0,0,0-1,0,29,29,0,0,0-5.81,9.43,11.45,11.45,0,0,0-.39,7.44c1,3,3.71,4.85,6.5,6a.54.54,0,0,0,.71-.21.65.65,0,0,0,.32.16.63.63,0,0,0-.59.66c0,2.08.09,4.16.14,6.25a.69.69,0,0,0,1.37,0c0-2.09-.09-4.17-.13-6.25a.66.66,0,0,0-.54-.65.64.64,0,0,0,.41-.18.52.52,0,0,0,.7.22c2.8-1.18,5.25-2.91,6.42-5.8m-1.24-6.11-5.69,5.69v-6.69c1.22-1.23,2.45-2.45,3.67-3.67a26.7,26.7,0,0,1,1.23,2.45A16.7,16.7,0,0,1,1360.58,151.46Zm-2.74-5.9-2.95,3v-6.9A27.9,27.9,0,0,1,1357.84,145.56Zm-4.32-3.93v6.88l-3-3A29.39,29.39,0,0,1,1353.52,141.63Zm-3.68,5.14,3.68,3.68v6.69q-2.85-2.83-5.68-5.68a18.24,18.24,0,0,1,.79-2.22A25.59,25.59,0,0,1,1349.84,146.77Zm-2.21,9.5a8.21,8.21,0,0,1-.13-3.2l6,6v3l-.14-.08C1350.73,160.93,1348.38,159.15,1347.63,156.27Zm13.21-.24c-.58,3-3.14,4.89-5.8,6l-.15.09v-3l6-6A9.42,9.42,0,0,1,1360.84,156Z"/><path class="cls-2" d="M1542.6,142V129.71c0-1.89.69-5.59-1.5-6.51a7.69,7.69,0,0,0-2.87-.19h-17.67c-1.1,0-2.34-.16-3.19.69a3.44,3.44,0,0,0-.7,2.7v31.41c0,3.14,3.08,2.73,5.28,2.73h18.27a1.11,1.11,0,0,0,.28,0c2.81-.38,2.1-4.29,2.1-6.29Zm-22.46,16.44c-.45,0-1.41.2-1.41-.46V126.85c0-.34-.22-1.71.31-1.78a19.42,19.42,0,0,1,2.53,0h17.56c.41,0,1.41-.21,1.41.41v31.09c0,.58.28,1.67-.43,1.91Z"/><path class="cls-2" d="M1401.47,116.53v36.83h0a1,1,0,0,0,2.06,0V116.54h0a1,1,0,0,0-2.06,0Z"/><path class="cls-2" d="M1408.38,116.53v36.83h0a1,1,0,0,0,2.06,0V116.54h0a1,1,0,0,0-2.06,0Z"/><path class="cls-2" d="M1415.28,116.53v36.83h0a1,1,0,0,0,2.06,0V116.54h0a1,1,0,0,0-2.06,0Z"/><path class="cls-2" d="M1422.19,116.53v36.83h0a1,1,0,0,0,2.06,0V116.54h0a1,1,0,0,0-2.06,0Z"/><path class="cls-2" d="M1429.1,116.53v36.83h0a1,1,0,0,0,2.06,0V116.54h0a1,1,0,0,0-2.06,0Z"/><path class="cls-2" d="M1429.72,96.19l-8.31-3.79-14.5-6.62-4.82-2.19c-1.35-.62-3.19-1.14-3.63.91a1.27,1.27,0,0,0,0,.29v19.77c0,2.75,2.4,2.41,4.41,2.41h26.47c1.82,0,1.94-1.64,1.94-3V98.27A2.17,2.17,0,0,0,1429.72,96.19Zm-.55,2Zm-3.78,6.76h-24.91V85.11h0l1.22.56,4.16,1.89L1417.75,93l9.84,4.49,1.58.73v6.71h-3.78Z"/><path class="cls-2" d="M1301.73,132.53a1,1,0,0,0,.7-.27l0,0,0,0a1,1,0,0,0,.28-.7V119.24a1,1,0,0,0-1-1h-12.26a1,1,0,0,0-1,1V131.5a1,1,0,0,0,1,1Zm-1-2.06h-10.2v-10.2h10.2Z"/><path class="cls-2" d="M1327.19,132.53a1,1,0,0,0,.7-.27l0,0,0,0a1,1,0,0,0,.28-.7V119.24a1,1,0,0,0-1-1h-12.26a1,1,0,0,0-1,1V131.5a1,1,0,0,0,1,1Zm-1-2.06H1316v-10.2h10.2Z"/><path class="cls-2" d="M1302.21,140.07H1290a1,1,0,0,0-1,1v12.26a1,1,0,0,0,1,1h12.26a1,1,0,0,0,.7-.28l0,0,0,0a1,1,0,0,0,.28-.7V141.1A1,1,0,0,0,1302.21,140.07Zm-1,12.26H1291v-10.2h10.2Z"/><path class="cls-2" d="M1327.67,140.07h-12.26a1,1,0,0,0-1,1v12.26a1,1,0,0,0,1,1h12.26a1,1,0,0,0,.7-.28l0,0,0,0a1,1,0,0,0,.28-.7V141.1A1,1,0,0,0,1327.67,140.07Zm-1,12.26h-10.2v-10.2h10.2Z"/><path class="cls-2" d="M1332.19,82.15h-44.83a1,1,0,0,0-1,1v6.6a1,1,0,0,0,1,1h44.83a1,1,0,0,0,.7-.27l0,0,0,0a1,1,0,0,0,.27-.7v-6.6A1,1,0,0,0,1332.19,82.15Zm-1,2.06v4.54h-42.77V84.21"/><path class="cls-2" d="M1332.19,95.47h-44.83a1,1,0,0,0-1,1V108a1,1,0,0,0,1,1h44.83a.92.92,0,0,0,.7-.28l0,0,0,0a1,1,0,0,0,.27-.7V96.5A1,1,0,0,0,1332.19,95.47Zm-40.85,11.45h-2.95V97.53h42.77v9.39Z"/><path class="cls-2" d="M1830.36,42.26h-60a1,1,0,0,0-1,1V165.34a1,1,0,0,0,1,1h60a.92.92,0,0,0,.7-.28l0,0,0,0a1,1,0,0,0,.27-.7v-122A1,1,0,0,0,1830.36,42.26Zm-39.72,122.05h-19.25v-120h57.94v120Z"/><path class="cls-2" d="M1766.15,106.32h-60a1,1,0,0,0-1,1v58.36a1,1,0,0,0,1,1h60a.92.92,0,0,0,.69-.28l0,0,0,0a1,1,0,0,0,.28-.7V107.35A1,1,0,0,0,1766.15,106.32Zm-39.73,58.36h-19.25v-56.3h57.95v56.3Z"/><path class="cls-2" d="M1702.11,50.16h-34.87a1,1,0,0,0-1,1v114.3a1,1,0,0,0,1,1h34.87a1,1,0,0,0,.7-.27l0,0,0,0a1,1,0,0,0,.27-.7V51.19A1,1,0,0,0,1702.11,50.16Zm-33.84,114.3V52.22h32.81V164.46Z"/><path class="cls-2" d="M1713.37,137.56h44.9a1,1,0,0,0,0-2.06h-44.9a1,1,0,0,0,0,2.06Z"/><path class="cls-2" d="M1673.91,137.56h22a1,1,0,0,0,0-2.06h-22a1,1,0,0,0,0,2.06Z"/><path class="cls-2" d="M1721.06,130.68V115a1,1,0,0,0-2.06,0v15.69a1,1,0,0,0,2.06,0Z"/><path class="cls-2" d="M1736.43,130.68V115a1,1,0,0,0-2.06,0v15.69a1,1,0,0,0,2.06,0Z"/><path class="cls-2" d="M1751.81,130.68V115a1,1,0,0,0-2.06,0v15.69a1,1,0,0,0,2.06,0Z"/><path class="cls-2" d="M1677.33,158.1V142.41a1,1,0,0,0-2.06,0V158.1a1,1,0,0,0,2.06,0Z"/><path class="cls-2" d="M1685.22,158.1V142.41a1,1,0,0,0-2.06,0V158.1a1,1,0,0,0,2.06,0Z"/><path class="cls-2" d="M1693.12,158.1V142.41a1,1,0,0,0-2.07,0V158.1a1,1,0,0,0,2.07,0Z"/><path class="cls-2" d="M1785.25,75.34v-6a1,1,0,0,0-2.06,0v6a1,1,0,0,0,2.06,0Z"/><path class="cls-2" d="M1800.63,75.34v-6a1,1,0,0,0-2.07,0v6a1,1,0,0,0,2.07,0Z"/><path class="cls-2" d="M1816,75.34v-6a1,1,0,0,0-2.06,0v6a1,1,0,0,0,2.06,0Z"/><path class="cls-2" d="M1785.25,64.08V52.45a1,1,0,0,0-2.06,0V64.08a1,1,0,0,0,2.06,0Z"/><path class="cls-2" d="M1800.63,64.08V52.45a1,1,0,0,0-2.07,0V64.08a1,1,0,0,0,2.07,0Z"/><path class="cls-2" d="M1816,64.08V52.45a1,1,0,0,0-2.06,0V64.08a1,1,0,0,0,2.06,0Z"/><path class="cls-2" d="M1681.42,59.64h-8a1,1,0,0,0-1,1v8a1,1,0,0,0,1,1h8a1,1,0,0,0,.7-.27l0,0,0,0a1,1,0,0,0,.27-.7v-8A1,1,0,0,0,1681.42,59.64Zm-1,8h-6v-6h6Z"/><path class="cls-2" d="M1694.08,59.64h-8a1,1,0,0,0-1,1v8a1,1,0,0,0,1,1h8a1,1,0,0,0,.7-.27l0,0s0,0,0,0a1,1,0,0,0,.28-.7v-8A1,1,0,0,0,1694.08,59.64Zm-1,8h-6v-6h6Z"/><path class="cls-2" d="M1681.42,72.28h-8a1,1,0,0,0-1,1v8a1,1,0,0,0,1,1h8a1,1,0,0,0,.7-.28l0,0,0,0a1,1,0,0,0,.27-.7v-8A1,1,0,0,0,1681.42,72.28Zm-1,8h-6v-6h6Z"/><path class="cls-2" d="M1694.08,72.28h-8a1,1,0,0,0-1,1v8a1,1,0,0,0,1,1h8a1,1,0,0,0,.7-.28l0,0s0,0,0,0a.92.92,0,0,0,.28-.7v-8A1,1,0,0,0,1694.08,72.28Zm-1,8h-6v-6h6Z"/><path class="cls-2" d="M1681.42,84.56h-8a1,1,0,0,0-1,1v8a1,1,0,0,0,1,1h8a1,1,0,0,0,.7-.27l0,0,0,0a1,1,0,0,0,.27-.7v-8A1,1,0,0,0,1681.42,84.56Zm-1,8h-6v-6h6Z"/><path class="cls-2" d="M1694.08,84.56h-8a1,1,0,0,0-1,1v8a1,1,0,0,0,1,1h8a1,1,0,0,0,.7-.27l0,0s0,0,0,0a.92.92,0,0,0,.28-.7v-8A1,1,0,0,0,1694.08,84.56Zm-1,8h-6v-6h6Z"/><path class="cls-2" d="M1681.42,97.19h-8a1,1,0,0,0-1,1v8a1,1,0,0,0,1,1h8a.92.92,0,0,0,.7-.28l0,0,0,0a1,1,0,0,0,.27-.7v-8A1,1,0,0,0,1681.42,97.19Zm-1,8h-6v-6h6Z"/><path class="cls-2" d="M1694.08,97.19h-8a1,1,0,0,0-1,1v8a1,1,0,0,0,1,1h8a1,1,0,0,0,.7-.28l0,0,0,0a1,1,0,0,0,.28-.7v-8A1,1,0,0,0,1694.08,97.19Zm-1,8h-6v-6h6Z"/><path class="cls-2" d="M1681.42,108.54h-8a1,1,0,0,0-1,1v8a1,1,0,0,0,1,1h8a.92.92,0,0,0,.7-.28l0,0,0,0a1,1,0,0,0,.27-.7v-8A1,1,0,0,0,1681.42,108.54Zm-1,8h-6v-6h6Z"/><path class="cls-2" d="M1694.08,108.54h-8a1,1,0,0,0-1,1v8a1,1,0,0,0,1,1h8a1,1,0,0,0,.7-.28l0,0,0,0a1,1,0,0,0,.28-.7v-8A1,1,0,0,0,1694.08,108.54Zm-1,8h-6v-6h6Z"/><path class="cls-2" d="M1681.42,121.17h-8a1,1,0,0,0-1,1v8a1,1,0,0,0,1,1h8a.92.92,0,0,0,.7-.28l0,0,0,0a1,1,0,0,0,.27-.7v-8A1,1,0,0,0,1681.42,121.17Zm-1,8h-6v-6h6Z"/><path class="cls-2" d="M1694.08,121.17h-8a1,1,0,0,0-1,1v8a1,1,0,0,0,1,1h8a1,1,0,0,0,.7-.28l0,0s0,0,0,0a1,1,0,0,0,.28-.7v-8A1,1,0,0,0,1694.08,121.17Zm-1,8h-6v-6h6Z"/><path class="cls-2" d="M1662.79,12.58h-34.87c-.56,0-1,.62-1,1.36V165.16c0,.74.47,1.36,1,1.36h34.87a.83.83,0,0,0,.7-.36l0,0,0,0a1.5,1.5,0,0,0,.28-.92V13.94A1.24,1.24,0,0,0,1662.79,12.58ZM1629,163.8V15.3h32.81V163.8Z"/><path class="cls-2" d="M1642.11,78.59h-8a1,1,0,0,0-1,1v8a1,1,0,0,0,1,1h8a.92.92,0,0,0,.69-.28l0,0,0,0a1,1,0,0,0,.28-.7v-8A1,1,0,0,0,1642.11,78.59Zm-1,8h-6v-6h6Z"/><path class="cls-2" d="M1654.76,78.59h-8a1,1,0,0,0-1,1v8a1,1,0,0,0,1,1h8a1,1,0,0,0,.7-.28l0,0a0,0,0,0,0,0,0,1,1,0,0,0,.28-.7v-8A1,1,0,0,0,1654.76,78.59Zm-1,8h-6v-6h6Z"/><path class="cls-2" d="M1642.11,91.22h-8a1,1,0,0,0-1,1v8a1,1,0,0,0,1,1h8a1,1,0,0,0,.69-.27l0,0,0,0a.94.94,0,0,0,.28-.7v-8A1,1,0,0,0,1642.11,91.22Zm-1,8h-6v-6h6Z"/><path class="cls-2" d="M1654.76,91.22h-8a1,1,0,0,0-1,1v8a1,1,0,0,0,1,1h8a1,1,0,0,0,.7-.27l0,0,0,0a.94.94,0,0,0,.28-.7v-8A1,1,0,0,0,1654.76,91.22Zm-1,8h-6v-6h6Z"/><path class="cls-2" d="M1642.11,103.5h-8a1,1,0,0,0-1,1v8a1,1,0,0,0,1,1h8a.92.92,0,0,0,.69-.28l0,0,0,0a1,1,0,0,0,.28-.7v-8A1,1,0,0,0,1642.11,103.5Zm-1,8h-6v-6h6Z"/><path class="cls-2" d="M1654.76,103.5h-8a1,1,0,0,0-1,1v8a1,1,0,0,0,1,1h8a1,1,0,0,0,.7-.28l0,0,0,0a1,1,0,0,0,.28-.7v-8A1,1,0,0,0,1654.76,103.5Zm-1,8h-6v-6h6Z"/><path class="cls-2" d="M1642.11,116.14h-8a1,1,0,0,0-1,1v8a1,1,0,0,0,1,1h8a1,1,0,0,0,.69-.27l0,0,0,0a.92.92,0,0,0,.28-.7v-8A1,1,0,0,0,1642.11,116.14Zm-1,8h-6v-6h6Z"/><path class="cls-2" d="M1654.76,116.14h-8a1,1,0,0,0-1,1v8a1,1,0,0,0,1,1h8a1,1,0,0,0,.7-.27l0,0s0,0,0,0a.92.92,0,0,0,.28-.7v-8A1,1,0,0,0,1654.76,116.14Zm-1,8h-6v-6h6Z"/><path class="cls-2" d="M1642.11,127.49h-8a1,1,0,0,0-1,1v8a1,1,0,0,0,1,1h8a1,1,0,0,0,.69-.27l0,0,0,0a.92.92,0,0,0,.28-.7v-8A1,1,0,0,0,1642.11,127.49Zm-1,8h-6v-6h6Z"/><path class="cls-2" d="M1654.76,127.49h-8a1,1,0,0,0-1,1v8a1,1,0,0,0,1,1h8a1,1,0,0,0,.7-.27l0,0,0,0a.92.92,0,0,0,.28-.7v-8A1,1,0,0,0,1654.76,127.49Zm-1,8h-6v-6h6Z"/><path class="cls-2" d="M1642.11,140.12h-8a1,1,0,0,0-1,1v8a1,1,0,0,0,1,1h8a.92.92,0,0,0,.69-.28l0,0,0,0a1,1,0,0,0,.28-.7v-8A1,1,0,0,0,1642.11,140.12Zm-1,8h-6v-6h6Z"/><path class="cls-2" d="M1654.76,140.12h-8a1,1,0,0,0-1,1v8a1,1,0,0,0,1,1h8a1,1,0,0,0,.7-.28l0,0a0,0,0,0,0,0,0,1,1,0,0,0,.28-.7v-8A1,1,0,0,0,1654.76,140.12Zm-1,8h-6v-6h6Z"/><path class="cls-2" d="M1641.86,25.08h-8a1,1,0,0,0-1,1v8a1,1,0,0,0,1,1h8a.92.92,0,0,0,.7-.28l0,0,0,0a1,1,0,0,0,.27-.7v-8A1,1,0,0,0,1641.86,25.08Zm-1,8h-6v-6h6Z"/><path class="cls-2" d="M1654.52,25.08h-8a1,1,0,0,0-1,1v8a1,1,0,0,0,1,1h8a1,1,0,0,0,.7-.28l0,0,0,0a1,1,0,0,0,.28-.7v-8A1,1,0,0,0,1654.52,25.08Zm-1,8h-6v-6h6Z"/><path class="cls-2" d="M1641.86,37.72h-8a1,1,0,0,0-1,1v8a1,1,0,0,0,1,1h8a1,1,0,0,0,.7-.27l0,0,0,0a1,1,0,0,0,.27-.7v-8A1,1,0,0,0,1641.86,37.72Zm-1,8h-6v-6h6Z"/><path class="cls-2" d="M1654.52,37.72h-8a1,1,0,0,0-1,1v8a1,1,0,0,0,1,1h8a1,1,0,0,0,.7-.27l0,0,0,0a.92.92,0,0,0,.28-.7v-8A1,1,0,0,0,1654.52,37.72Zm-1,8h-6v-6h6Z"/><path class="cls-2" d="M1641.86,51.06h-8a1,1,0,0,0-1,1v8a1,1,0,0,0,1,1h8a1,1,0,0,0,.7-.27l0,0,0,0a1,1,0,0,0,.27-.7v-8A1,1,0,0,0,1641.86,51.06Zm-1,8h-6v-6h6Z"/><path class="cls-2" d="M1654.52,51.06h-8a1,1,0,0,0-1,1v8a1,1,0,0,0,1,1h8a1,1,0,0,0,.7-.27l0,0,0,0a.94.94,0,0,0,.28-.7v-8A1,1,0,0,0,1654.52,51.06Zm-1,8h-6v-6h6Z"/><path class="cls-2" d="M1641.86,63.7h-8a1,1,0,0,0-1,1v8a1,1,0,0,0,1,1h8a.92.92,0,0,0,.7-.28l0,0,0,0a1,1,0,0,0,.27-.69v-8A1,1,0,0,0,1641.86,63.7Zm-1,8h-6v-6h6Z"/><path class="cls-2" d="M1654.52,63.7h-8a1,1,0,0,0-1,1v8a1,1,0,0,0,1,1h8a1,1,0,0,0,.7-.28l0,0s0,0,0,0a.92.92,0,0,0,.28-.69v-8A1,1,0,0,0,1654.52,63.7Zm-1,8h-6v-6h6Z"/><path class="cls-2" d="M1713.44,149.37h44.83a.92.92,0,0,0,.7-.28l0,0,0,0a1,1,0,0,0,.27-.69v-6.61a1,1,0,0,0-1-1h-44.83a1,1,0,0,0-1,1v6.61A1,1,0,0,0,1713.44,149.37Zm40.85-6.6h3v4.54h-42.77v-4.54Z"/><path class="cls-2" d="M1759.59,152.75a1,1,0,0,0-1-1h-44.83a1,1,0,0,0-1,1v6.6a1,1,0,0,0,1,1h44.83a1,1,0,0,0,.7-.27l0,0,0,0a.92.92,0,0,0,.28-.7Zm-41.88,5.57h-3v-4.54h42.77v4.54Z"/><path class="cls-2" d="M1793.38,132.76a1,1,0,0,0,.7-.27l0,0,0,0a.92.92,0,0,0,.28-.7V119.47a1,1,0,0,0-1-1h-12.26a1,1,0,0,0-1,1v12.26a1,1,0,0,0,1,1Zm-1-2.06h-10.2V120.5h10.2Z"/><path class="cls-2" d="M1818.84,132.76a1,1,0,0,0,.7-.27l0,0s0,0,0,0a.92.92,0,0,0,.28-.7V119.47a1,1,0,0,0-1-1h-12.26a1,1,0,0,0-1,1v12.26a1,1,0,0,0,1,1Zm-1-2.06h-10.2V120.5h10.2Z"/><path class="cls-2" d="M1793.86,140.3H1781.6a1,1,0,0,0-1,1v12.26a1,1,0,0,0,1,1h12.26a1,1,0,0,0,.7-.28l0,0s0,0,0,0a1,1,0,0,0,.28-.7V141.33A1,1,0,0,0,1793.86,140.3Zm-1,12.26h-10.2v-10.2h10.2Z"/><path class="cls-2" d="M1819.32,140.3h-12.26a1,1,0,0,0-1,1v12.26a1,1,0,0,0,1,1h12.26a1,1,0,0,0,.7-.28l0,0,0,0a1,1,0,0,0,.28-.7V141.33A1,1,0,0,0,1819.32,140.3Zm-1,12.26h-10.2v-10.2h10.2Z"/><path class="cls-2" d="M1823.84,82.38H1779a1,1,0,0,0-1,1V90a1,1,0,0,0,1,1h44.83a1,1,0,0,0,.7-.27l0,0,0,0a1,1,0,0,0,.27-.7v-6.6A1,1,0,0,0,1823.84,82.38Zm-1,2.06V89H1780V84.44"/><path class="cls-2" d="M1823.84,95.7H1779a1,1,0,0,0-1,1v11.45a1,1,0,0,0,1,1h44.83a1,1,0,0,0,.7-.27l0,0,0,0a1,1,0,0,0,.27-.7V96.73A1,1,0,0,0,1823.84,95.7ZM1783,107.15h-3V97.76h42.77v9.39Z"/><path class="cls-2" d="M1356.21,37.78h-7.57a1,1,0,0,0-1,1V86.58a1,1,0,0,0,1,1h7.57a.92.92,0,0,0,.7-.28l0,0,0,0a1,1,0,0,0,.27-.7V38.81A1,1,0,0,0,1356.21,37.78Zm-6.54,2.06h5.51V85.55h-5.51V39.84Z"/><path class="cls-2" d="M1369.9,37.78h-7.57a1,1,0,0,0-1,1V86.58a1,1,0,0,0,1,1h7.57a.92.92,0,0,0,.69-.28l0,0,0,0a1,1,0,0,0,.28-.7V38.81A1,1,0,0,0,1369.9,37.78Zm-6.54,2.06h5.51V85.55h-5.51V39.84Z"/><path class="cls-2" d="M1383.58,37.78H1376a1,1,0,0,0-1,1V86.58a1,1,0,0,0,1,1h7.57a1,1,0,0,0,.7-.28l0,0s0,0,0,0a1,1,0,0,0,.28-.7V38.81A1,1,0,0,0,1383.58,37.78ZM1377,39.84h5.51V85.55H1377V39.84Z"/><path class="cls-2" d="M1275.15,2.32h-46.87a1,1,0,0,0-1,1V165.88a1,1,0,0,0,1,1h46.87a.92.92,0,0,0,.69-.28l0,0,0,0a1,1,0,0,0,.28-.7V3.35A1,1,0,0,0,1275.15,2.32ZM1234,164.85h-4.72V4.38h44.81V164.85Z"/><path class="cls-2" d="M1241.67,63.61h-7.57a1,1,0,0,0-1,1V75.27a1,1,0,0,0,1,1h7.57a.94.94,0,0,0,.7-.28l0,0,0,0a1,1,0,0,0,.27-.7V64.64A1,1,0,0,0,1241.67,63.61Zm-1,10.63h-5.51V65.67h5.51Z"/><path class="cls-2" d="M1255.36,63.61h-7.58a1,1,0,0,0-1,1V75.27a1,1,0,0,0,1,1h7.58a.92.92,0,0,0,.69-.28l0,0,0,0a1,1,0,0,0,.28-.7V64.64A1,1,0,0,0,1255.36,63.61Zm-1,10.63h-5.52V65.67h5.52Z"/><path class="cls-2" d="M1269,63.61h-7.57a1,1,0,0,0-1,1V75.27a1,1,0,0,0,1,1H1269a1,1,0,0,0,.7-.28l0,0s0,0,0,0a1,1,0,0,0,.28-.7V64.64A1,1,0,0,0,1269,63.61Zm-1,10.63h-5.51V65.67H1268Z"/><path class="cls-2" d="M1241.67,80.3h-7.57a1,1,0,0,0-1,1V92a1,1,0,0,0,1,1h7.57a.94.94,0,0,0,.7-.28l0,0,0,0a1,1,0,0,0,.27-.69V81.33A1,1,0,0,0,1241.67,80.3Zm-1,10.63h-5.51V82.36h5.51Z"/><path class="cls-2" d="M1255.36,80.3h-7.58a1,1,0,0,0-1,1V92a1,1,0,0,0,1,1h7.58a.92.92,0,0,0,.69-.28l0,0,0,0a.92.92,0,0,0,.28-.69V81.33A1,1,0,0,0,1255.36,80.3Zm-1,10.63h-5.52V82.36h5.52Z"/><path class="cls-2" d="M1269,80.3h-7.57a1,1,0,0,0-1,1V92a1,1,0,0,0,1,1H1269a1,1,0,0,0,.7-.28l0,0s0,0,0,0a.92.92,0,0,0,.28-.69V81.33A1,1,0,0,0,1269,80.3Zm-1,10.63h-5.51V82.36H1268Z"/><path class="cls-2" d="M1241.67,96.3h-7.57a1,1,0,0,0-1,1V108a1,1,0,0,0,1,1h7.57a.94.94,0,0,0,.7-.28l0,0,0,0a1,1,0,0,0,.27-.7V97.33A1,1,0,0,0,1241.67,96.3Zm-1,10.64h-5.51V98.36h5.51Z"/><path class="cls-2" d="M1255.36,96.3h-7.58a1,1,0,0,0-1,1V108a1,1,0,0,0,1,1h7.58a.92.92,0,0,0,.69-.28l0,0,0,0a1,1,0,0,0,.28-.7V97.33A1,1,0,0,0,1255.36,96.3Zm-1,10.64h-5.52V98.36h5.52Z"/><path class="cls-2" d="M1269,96.3h-7.57a1,1,0,0,0-1,1V108a1,1,0,0,0,1,1H1269a1,1,0,0,0,.7-.28l0,0a0,0,0,0,0,0,0,1,1,0,0,0,.28-.7V97.33A1,1,0,0,0,1269,96.3Zm-1,10.64h-5.51V98.36H1268Z"/><path class="cls-2" d="M1241.67,13h-7.57a1,1,0,0,0-1,1V24.63a1,1,0,0,0,1,1h7.57a.94.94,0,0,0,.7-.28l0,0,0,0a1,1,0,0,0,.27-.7V14A1,1,0,0,0,1241.67,13Zm-1,10.63h-5.51V15h5.51Z"/><path class="cls-2" d="M1255.36,13h-7.58a1,1,0,0,0-1,1V24.63a1,1,0,0,0,1,1h7.58a.92.92,0,0,0,.69-.28l0,0,0,0a1,1,0,0,0,.28-.7V14A1,1,0,0,0,1255.36,13Zm-1,10.63h-5.52V15h5.52Z"/><path class="cls-2" d="M1269,13h-7.57a1,1,0,0,0-1,1V24.63a1,1,0,0,0,1,1H1269a1,1,0,0,0,.7-.28l0,0s0,0,0,0a1,1,0,0,0,.28-.7V14A1,1,0,0,0,1269,13Zm-1,10.63h-5.51V15H1268Z"/><path class="cls-2" d="M1241.67,29.66h-7.57a1,1,0,0,0-1,1V41.33a1,1,0,0,0,1,1h7.57a.94.94,0,0,0,.7-.28l0,0,0,0a1,1,0,0,0,.27-.69V30.69A1,1,0,0,0,1241.67,29.66Zm-1,10.64h-5.51V31.72h5.51Z"/><path class="cls-2" d="M1255.36,29.66h-7.58a1,1,0,0,0-1,1V41.33a1,1,0,0,0,1,1h7.58a.92.92,0,0,0,.69-.28l0,0,0,0a.92.92,0,0,0,.28-.69V30.69A1,1,0,0,0,1255.36,29.66Zm-1,10.64h-5.52V31.72h5.52Z"/><path class="cls-2" d="M1269,29.66h-7.57a1,1,0,0,0-1,1V41.33a1,1,0,0,0,1,1H1269a1,1,0,0,0,.7-.28l0,0,0,0a.92.92,0,0,0,.28-.69V30.69A1,1,0,0,0,1269,29.66Zm-1,10.64h-5.51V31.72H1268Z"/><path class="cls-2" d="M1241.67,45.66h-7.57a1,1,0,0,0-1,1V57.33a1,1,0,0,0,1,1h7.57a.94.94,0,0,0,.7-.28l0,0,0,0a1,1,0,0,0,.27-.7V46.69A1,1,0,0,0,1241.67,45.66Zm-1,10.64h-5.51V47.72h5.51Z"/><path class="cls-2" d="M1255.36,45.66h-7.58a1,1,0,0,0-1,1V57.33a1,1,0,0,0,1,1h7.58a.92.92,0,0,0,.69-.28l0,0,0,0a1,1,0,0,0,.28-.7V46.69A1,1,0,0,0,1255.36,45.66Zm-1,10.64h-5.52V47.72h5.52Z"/><path class="cls-2" d="M1269,45.66h-7.57a1,1,0,0,0-1,1V57.33a1,1,0,0,0,1,1H1269a1,1,0,0,0,.7-.28l0,0,0,0a1,1,0,0,0,.28-.7V46.69A1,1,0,0,0,1269,45.66Zm-1,10.64h-5.51V47.72H1268Z"/><path class="cls-2" d="M1348.46,115h34.94a1,1,0,0,0,0-2.06h-34.94a1,1,0,0,0,0,2.06Z"/><path class="cls-2" d="M1348.46,122.49h34.94a1,1,0,0,0,0-2.06h-34.94a1,1,0,0,0,0,2.06Z"/><path class="cls-2" d="M1348.46,130h34.94a1,1,0,0,0,0-2.06h-34.94a1,1,0,0,0,0,2.06Z"/><path class="cls-2" d="M1348.46,137.42h34.94a1,1,0,0,0,0-2.06h-34.94a1,1,0,0,0,0,2.06Z"/><path class="cls-2" d="M1366.52,144.44h17a1,1,0,0,0,0-2.06h-17a1,1,0,0,0,0,2.06Z"/><path class="cls-2" d="M1366.52,151.91h17a1,1,0,0,0,0-2.07h-17a1,1,0,0,0,0,2.07Z"/><path class="cls-2" d="M1449.33,158.29h39.41a1,1,0,0,0,0-2.06h-39.41a1,1,0,0,0,0,2.06Z"/><path class="cls-2" d="M1505.41,152.39a29.55,29.55,0,0,0-6.19-10.09.62.62,0,0,0-1,.08.74.74,0,0,0-1.12,0,.63.63,0,0,0-1-.07,30.82,30.82,0,0,0-6.1,9.84,12.27,12.27,0,0,0-.5,8c1,3.22,3.92,5.2,6.9,6.45a.54.54,0,0,0,.73-.25.75.75,0,0,0,1.06,0,.54.54,0,0,0,.73.26c3-1.25,5.61-3.12,6.82-6.22C1506.72,157.79,1506.27,154.88,1505.41,152.39Zm-.94,1.56q-3.06,3.06-6.13,6.13v-7.22l4-4c.47.85.91,1.71,1.29,2.58A17.23,17.23,0,0,1,1504.47,154Zm-2.9-6.27q-1.6,1.62-3.23,3.23v-7.54A29.72,29.72,0,0,1,1501.57,147.68Zm-4.6-4.3v7.52l-3.24-3.24A29.87,29.87,0,0,1,1497,143.38Zm-4,5.5c1.32,1.32,2.65,2.64,4,4v7.22l-6.11-6.11a19.09,19.09,0,0,1,.74-2.17A26.73,26.73,0,0,1,1493,148.88ZM1490.62,159a8.9,8.9,0,0,1-.11-3.45L1497,162v3.33a1,1,0,0,0-.2-.13C1493.93,164,1491.41,162.11,1490.62,159Zm14.13-.24c-.62,3.21-3.34,5.25-6.2,6.44a1.1,1.1,0,0,0-.21.14V162q3.24-3.22,6.46-6.46A9.88,9.88,0,0,1,1504.75,158.77Z"/><path class="cls-2" d="M1496.9,167.23l.15,6.63a.69.69,0,0,0,1.37,0l-.14-6.63A.69.69,0,0,0,1496.9,167.23Z"/><path class="cls-3" d="M1591,165.33h-34.81a.55.55,0,0,1-.55-.55V96.85a.55.55,0,0,1,.55-.55H1591a.55.55,0,0,1,.55.55v67.93A.55.55,0,0,1,1591,165.33Zm-34.26-1.1h33.7V97.41h-33.7Z"/><path class="cls-3" d="M1628.25,165.33h-34.8a.55.55,0,0,1-.55-.55V77.83a.54.54,0,0,1,.55-.55h34.8a.55.55,0,0,1,.56.55v87A.56.56,0,0,1,1628.25,165.33Zm-34.25-1.1h33.7V78.38H1594Z"/><path class="cls-3" d="M1586.48,104.34h-25.93a.39.39,0,1,1,0-.78h25.93a.39.39,0,1,1,0,.78Z"/><path class="cls-3" d="M1563.81,160a.4.4,0,0,1-.39-.4V139.69a.4.4,0,0,1,.79,0V159.6A.4.4,0,0,1,1563.81,160Z"/><path class="cls-3" d="M1568.71,160a.4.4,0,0,1-.39-.4V139.69a.4.4,0,0,1,.79,0V159.6A.4.4,0,0,1,1568.71,160Z"/><path class="cls-3" d="M1573.61,160a.4.4,0,0,1-.39-.4V139.69a.4.4,0,0,1,.79,0V159.6A.4.4,0,0,1,1573.61,160Z"/><path class="cls-3" d="M1578.51,160a.4.4,0,0,1-.39-.4V139.69a.4.4,0,0,1,.79,0V159.6A.4.4,0,0,1,1578.51,160Z"/><path class="cls-3" d="M1583.41,160a.4.4,0,0,1-.39-.4V139.69a.4.4,0,0,1,.79,0V159.6A.4.4,0,0,1,1583.41,160Z"/><path class="cls-3" d="M1586.48,136.09h-25.93a.4.4,0,0,1,0-.79h25.93a.4.4,0,1,1,0,.79Z"/><path class="cls-3" d="M1601.94,115.07h-4.26a.38.38,0,0,1-.39-.39V82.53a.38.38,0,0,1,.39-.39h4.26a.39.39,0,0,1,.39.39v32.15A.39.39,0,0,1,1601.94,115.07Zm-3.86-.79h3.46V82.92h-3.46Z"/><path class="cls-3" d="M1609.33,115.07h-4.26a.39.39,0,0,1-.39-.39V82.53a.39.39,0,0,1,.39-.39h4.26a.38.38,0,0,1,.39.39v32.15A.38.38,0,0,1,1609.33,115.07Zm-3.86-.79h3.46V82.92h-3.46Z"/><path class="cls-3" d="M1616.72,115.07h-4.25a.39.39,0,0,1-.4-.39V82.53a.39.39,0,0,1,.4-.39h4.25a.38.38,0,0,1,.39.39v32.15A.38.38,0,0,1,1616.72,115.07Zm-3.86-.79h3.47V82.92h-3.47Z"/><path class="cls-3" d="M1624.11,115.07h-4.25a.39.39,0,0,1-.4-.39V82.53a.39.39,0,0,1,.4-.39h4.25a.39.39,0,0,1,.4.39v32.15A.39.39,0,0,1,1624.11,115.07Zm-3.86-.79h3.47V82.92h-3.47Z"/><path class="cls-3" d="M1601.94,126h-4.26a.39.39,0,0,1-.39-.39V121.3a.38.38,0,0,1,.39-.39h4.26a.39.39,0,0,1,.39.39v4.26A.4.4,0,0,1,1601.94,126Zm-3.86-.79h3.46V121.7h-3.46Z"/><path class="cls-3" d="M1609.33,126h-4.26a.4.4,0,0,1-.39-.39V121.3a.39.39,0,0,1,.39-.39h4.26a.38.38,0,0,1,.39.39v4.26A.39.39,0,0,1,1609.33,126Zm-3.86-.79h3.46V121.7h-3.46Z"/><path class="cls-3" d="M1616.72,126h-4.25a.4.4,0,0,1-.4-.39V121.3a.39.39,0,0,1,.4-.39h4.25a.38.38,0,0,1,.39.39v4.26A.39.39,0,0,1,1616.72,126Zm-3.86-.79h3.47V121.7h-3.47Z"/><path class="cls-3" d="M1624.11,126h-4.25a.4.4,0,0,1-.4-.39V121.3a.39.39,0,0,1,.4-.39h4.25a.39.39,0,0,1,.4.39v4.26A.4.4,0,0,1,1624.11,126Zm-3.86-.79h3.47V121.7h-3.47Z"/><path class="cls-3" d="M1601.94,132.79h-4.26a.39.39,0,0,1-.39-.4v-4.25a.39.39,0,0,1,.39-.4h4.26a.4.4,0,0,1,.39.4v4.25A.4.4,0,0,1,1601.94,132.79Zm-3.86-.79h3.46v-3.47h-3.46Z"/><path class="cls-3" d="M1609.33,132.79h-4.26a.4.4,0,0,1-.39-.4v-4.25a.4.4,0,0,1,.39-.4h4.26a.39.39,0,0,1,.39.4v4.25A.39.39,0,0,1,1609.33,132.79Zm-3.86-.79h3.46v-3.47h-3.46Z"/><path class="cls-3" d="M1616.72,132.79h-4.25a.4.4,0,0,1-.4-.4v-4.25a.4.4,0,0,1,.4-.4h4.25a.39.39,0,0,1,.39.4v4.25A.39.39,0,0,1,1616.72,132.79Zm-3.86-.79h3.47v-3.47h-3.47Z"/><path class="cls-3" d="M1624.11,132.79h-4.25a.4.4,0,0,1-.4-.4v-4.25a.4.4,0,0,1,.4-.4h4.25a.4.4,0,0,1,.4.4v4.25A.4.4,0,0,1,1624.11,132.79Zm-3.86-.79h3.47v-3.47h-3.47Z"/><path class="cls-3" d="M1601.94,139.62h-4.26a.39.39,0,0,1-.39-.39V135a.38.38,0,0,1,.39-.39h4.26a.39.39,0,0,1,.39.39v4.26A.4.4,0,0,1,1601.94,139.62Zm-3.86-.79h3.46v-3.46h-3.46Z"/><path class="cls-3" d="M1609.33,139.62h-4.26a.4.4,0,0,1-.39-.39V135a.39.39,0,0,1,.39-.39h4.26a.38.38,0,0,1,.39.39v4.26A.39.39,0,0,1,1609.33,139.62Zm-3.86-.79h3.46v-3.46h-3.46Z"/><path class="cls-3" d="M1616.72,139.62h-4.25a.4.4,0,0,1-.4-.39V135a.39.39,0,0,1,.4-.39h4.25a.38.38,0,0,1,.39.39v4.26A.39.39,0,0,1,1616.72,139.62Zm-3.86-.79h3.47v-3.46h-3.47Z"/><path class="cls-3" d="M1624.11,139.62h-4.25a.4.4,0,0,1-.4-.39V135a.39.39,0,0,1,.4-.39h4.25a.39.39,0,0,1,.4.39v4.26A.4.4,0,0,1,1624.11,139.62Zm-3.86-.79h3.47v-3.46h-3.47Z"/><path class="cls-3" d="M1586.58,122.83h-25.93a.4.4,0,0,1-.4-.4v-4.25a.39.39,0,0,1,.4-.39h25.93a.38.38,0,0,1,.39.39v4.25A.39.39,0,0,1,1586.58,122.83ZM1561,122h25.15v-3.47H1561Z"/><path class="cls-3" d="M1586.58,114.1h-25.93a.4.4,0,0,1-.4-.4v-4.25a.4.4,0,0,1,.4-.4h25.93a.39.39,0,0,1,.39.4v4.25A.39.39,0,0,1,1586.58,114.1Zm-25.54-.79h25.15v-3.47H1561Z"/><path class="cls-2" d="M1901.77,36h-34.88a1.1,1.1,0,0,0-1,1.15V165.22a1.1,1.1,0,0,0,1,1.15h34.88a.9.9,0,0,0,.7-.31l0,0,0,0a1.1,1.1,0,0,0,.28-.78V37.16A1.1,1.1,0,0,0,1901.77,36Zm-33.85,128.05V38.32h32.82V164.06Z"/><path class="cls-2" d="M1873.56,137.41h22a1,1,0,0,0,0-2.06h-22a1,1,0,0,0,0,2.06Z"/><path class="cls-2" d="M1877,158V142.26a1,1,0,0,0-2.06,0V158a1,1,0,0,0,2.06,0Z"/><path class="cls-2" d="M1884.88,158V142.26a1,1,0,0,0-2.06,0V158a1,1,0,0,0,2.06,0Z"/><path class="cls-2" d="M1892.77,158V142.26a1,1,0,0,0-2.06,0V158a1,1,0,0,0,2.06,0Z"/><path class="cls-2" d="M1881.08,49.49h-8a1,1,0,0,0-1,1v8a1,1,0,0,0,1,1h8a1,1,0,0,0,.7-.27l0,0,0,0a1,1,0,0,0,.28-.7v-8A1,1,0,0,0,1881.08,49.49Zm-1,8h-6v-6h6Z"/><path class="cls-2" d="M1893.73,49.49h-8a1,1,0,0,0-1,1v8a1,1,0,0,0,1,1h8a1,1,0,0,0,.7-.27l0,0,0,0a1,1,0,0,0,.27-.7v-8A1,1,0,0,0,1893.73,49.49Zm-1,8h-6v-6h6Z"/><path class="cls-2" d="M1881.08,62.13h-8a1,1,0,0,0-1,1v8a1,1,0,0,0,1,1h8a1,1,0,0,0,.7-.28l0,0s0,0,0,0a.92.92,0,0,0,.28-.7v-8A1,1,0,0,0,1881.08,62.13Zm-1,8h-6v-6h6Z"/><path class="cls-2" d="M1893.73,62.13h-8a1,1,0,0,0-1,1v8a1,1,0,0,0,1,1h8a1,1,0,0,0,.7-.28l0,0,0,0a1,1,0,0,0,.27-.7v-8A1,1,0,0,0,1893.73,62.13Zm-1,8h-6v-6h6Z"/><path class="cls-2" d="M1881.08,74.41h-8a1,1,0,0,0-1,1v8a1,1,0,0,0,1,1h8a1,1,0,0,0,.7-.27l0,0s0,0,0,0a.92.92,0,0,0,.28-.7v-8A1,1,0,0,0,1881.08,74.41Zm-1,8h-6v-6h6Z"/><path class="cls-2" d="M1893.73,74.41h-8a1,1,0,0,0-1,1v8a1,1,0,0,0,1,1h8a1,1,0,0,0,.7-.27l0,0,0,0a1,1,0,0,0,.27-.7v-8A1,1,0,0,0,1893.73,74.41Zm-1,8h-6v-6h6Z"/><path class="cls-2" d="M1881.08,87h-8a1,1,0,0,0-1,1v8a1,1,0,0,0,1,1h8a1,1,0,0,0,.7-.28l0,0a0,0,0,0,0,0,0,1,1,0,0,0,.28-.7v-8A1,1,0,0,0,1881.08,87Zm-1,8h-6v-6h6Z"/><path class="cls-2" d="M1893.73,87h-8a1,1,0,0,0-1,1v8a1,1,0,0,0,1,1h8a.92.92,0,0,0,.7-.28l0,0,0,0a1,1,0,0,0,.27-.7v-8A1,1,0,0,0,1893.73,87Zm-1,8h-6v-6h6Z"/><path class="cls-2" d="M1881.08,98.39h-8a1,1,0,0,0-1,1v8a1,1,0,0,0,1,1h8a1,1,0,0,0,.7-.28l0,0,0,0a1,1,0,0,0,.28-.7v-8A1,1,0,0,0,1881.08,98.39Zm-1,8h-6v-6h6Z"/><path class="cls-2" d="M1893.73,98.39h-8a1,1,0,0,0-1,1v8a1,1,0,0,0,1,1h8a.92.92,0,0,0,.7-.28l0,0,0,0a1,1,0,0,0,.27-.7v-8A1,1,0,0,0,1893.73,98.39Zm-1,8h-6v-6h6Z"/><path class="cls-2" d="M1881.08,111h-8a1,1,0,0,0-1,1v8a1,1,0,0,0,1,1h8a1,1,0,0,0,.7-.28l0,0s0,0,0,0a1,1,0,0,0,.28-.7v-8A1,1,0,0,0,1881.08,111Zm-1,8h-6v-6h6Z"/><path class="cls-2" d="M1893.73,111h-8a1,1,0,0,0-1,1v8a1,1,0,0,0,1,1h8a.92.92,0,0,0,.7-.28l0,0,0,0a1,1,0,0,0,.27-.7v-8A1,1,0,0,0,1893.73,111Zm-1,8h-6v-6h6Z"/><rect class="cls-4" x="1519.32" y="44.03" width="8.03" height="7"/><rect class="cls-4" x="1066.47" y="105.02" width="8.03" height="7"/><rect class="cls-4" x="1066.47" y="68.86" width="8.03" height="7"/><g class="cls-5"><path class="cls-6" d="M1849.77,125.92s-.09-.45-.24-.28c-.16-.17-.25.29-.25.29-3.27,3.78-21.25,25.83.09,29.46v.06l.18,0,.22,0v-.08C1870.81,151,1853,129.61,1849.77,125.92Z"/></g><g class="cls-5"><path class="cls-6" d="M705.64,125.89s-.09-.45-.24-.27c-.16-.18-.25.28-.25.28-3.26,3.78-21.25,25.84.09,29.46v.07l.18,0,.22,0v-.08C726.68,151,708.89,129.58,705.64,125.89Z"/></g><rect class="cls-4" x="313.8" y="131.69" width="10.2" height="10.2"/><rect class="cls-4" x="1457.13" y="109.83" width="10.2" height="10.2"/><rect class="cls-4" x="541.92" y="64.99" width="8.03" height="7"/><path class="cls-2" d="M54.08,182.94h97.67a1.62,1.62,0,0,0,0-3.23H54.08a1.62,1.62,0,0,0,0,3.23Z"/><path class="cls-2" d="M178.58,182.94H505.34a1.62,1.62,0,0,0,0-3.23H178.58a1.62,1.62,0,0,0,0,3.23Z"/><path class="cls-2" d="M528.89,182.94h16.4a1.62,1.62,0,0,0,0-3.23h-16.4a1.62,1.62,0,0,0,0,3.23Z"/><path class="cls-2" d="M563.67,182.94h34.78a1.62,1.62,0,0,0,0-3.23H563.67a1.62,1.62,0,0,0,0,3.23Z"/><path class="cls-2" d="M814.25,183.11H1141a1.61,1.61,0,0,0,0-3.22H814.25a1.61,1.61,0,0,0,0,3.22Z"/><path class="cls-7" d="M814.2,180.64H666.75a.86.86,0,0,0,0,1.72H814.2a.86.86,0,1,0,0-1.72Z"/><path class="cls-7" d="M656.12,180.64h-36.8a.86.86,0,1,0,0,1.72h36.8a.86.86,0,0,0,0-1.72Z"/><path class="cls-2" d="M1198.2,183h97.68a1.62,1.62,0,0,0,0-3.23H1198.2a1.62,1.62,0,0,0,0,3.23Z"/><path class="cls-2" d="M1322.71,183h326.76a1.62,1.62,0,0,0,0-3.23H1322.71a1.62,1.62,0,0,0,0,3.23Z"/><path class="cls-2" d="M1673,183h16.4a1.62,1.62,0,0,0,0-3.23H1673a1.62,1.62,0,0,0,0,3.23Z"/><path class="cls-2" d="M1707.8,183h34.78a1.62,1.62,0,0,0,0-3.23H1707.8a1.62,1.62,0,0,0,0,3.23Z"/><path class="cls-2" d="M1773,182.73h97.67a1.62,1.62,0,0,0,0-3.23H1773a1.62,1.62,0,0,0,0,3.23Z"/></g></g></svg>