<svg xmlns="http://www.w3.org/2000/svg" viewBox="0 0 20.34 14.35"><defs><style>.cls-1{fill:#d7d9e0;stroke:#dcdde5;stroke-miterlimit:10;stroke-width:0.77px;}</style></defs><title>Ativo 5</title><g id="Camada_2" data-name="Camada 2"><g id="nuvens"><path class="cls-1" d="M15,14H5.33a5,5,0,0,1,0-9.9,5.69,5.69,0,0,1,.83.07,4.89,4.89,0,0,1,9.5,0A4.95,4.95,0,0,1,15,14ZM5.33,5.17a3.85,3.85,0,0,0,0,7.69H15a3.85,3.85,0,0,0,.17-7.69l-.46,0-.06-.45a3.79,3.79,0,0,0-7.51.16l-.07.66-.63-.19A3.84,3.84,0,0,0,5.33,5.17Z"/></g></g></svg>