<svg xmlns="http://www.w3.org/2000/svg" viewBox="0 0 25.02 14.35"><defs><style>.cls-1{fill:#d7d9e0;stroke:#dcdde5;stroke-miterlimit:10;stroke-width:0.77px;}.cls-2{fill:#76c613;opacity:0.3;}</style></defs><title>Ativo 4</title><g id="Camada_2" data-name="Camada 2"><g id="nuvens"><path class="cls-1" d="M15,14H5.33a5,5,0,0,1,0-9.9,5.69,5.69,0,0,1,.83.07,4.89,4.89,0,0,1,9.5,0A4.95,4.95,0,0,1,15,14ZM5.33,5.17a3.85,3.85,0,0,0,0,7.69H15a3.85,3.85,0,0,0,.17-7.69l-.46,0-.06-.45a3.79,3.79,0,0,0-7.51.16l-.07.66-.63-.19A3.84,3.84,0,0,0,5.33,5.17Z"/><path class="cls-2" d="M21.57,5.84A3.56,3.56,0,0,0,14.51,6a3.71,3.71,0,0,0-1-.16,3.61,3.61,0,0,0,0,7.22H21.4a3.61,3.61,0,0,0,.17-7.21Z"/></g></g></svg>